<svg id="logo" xmlns="http://www.w3.org/2000/svg" xmlns:xlink="http://www.w3.org/1999/xlink" viewBox="0 0 320 500">
	<defs>
    	
			<g>
				<path style="fill:#2D639D;" d="M149.8,111.9v-7.1c0-0.7,0-1.5,0.1-2.5h-0.1c-0.2,0.7-0.3,1.2-0.4,1.5l-2.9,8h-2l-2.9-8
		c-0.1-0.2-0.2-0.7-0.4-1.6h-0.1c0.1,1,0.1,2,0.1,2.9v6.6h-2.2v-11.6h3.6l2.5,7c0.2,0.6,0.4,1.1,0.4,1.6h0.1
		c0.2-0.6,0.3-1.2,0.5-1.7l2.5-7h3.5v11.6H149.8z M132.9,103.3c-0.5-0.7-1.3-1.1-2.2-1.1c-1,0-1.7,0.4-2.3,1.1
		c-0.6,0.7-0.8,1.7-0.8,2.8c0,1.1,0.3,2.1,0.8,2.8c0.5,0.7,1.3,1.1,2.3,1.1c1,0,1.7-0.3,2.3-1c0.5-0.7,0.8-1.6,0.8-2.8
		C133.7,104.9,133.4,104,132.9,103.3z M134.7,110.4c-1.1,1.1-2.4,1.7-4.1,1.7c-1.7,0-3-0.5-4.1-1.6c-1-1.1-1.6-2.5-1.6-4.2
		c0-1.8,0.5-3.3,1.6-4.5c1.1-1.1,2.5-1.7,4.2-1.7c1.7,0,3,0.6,4,1.7c1,1.1,1.5,2.5,1.5,4.3C136.3,107.8,135.8,109.3,134.7,110.4z
		 M120.1,110c1,0,2-0.2,2.8-0.8v2.3c-0.8,0.4-2,0.6-3.3,0.6c-1.8,0-3.1-0.5-4.2-1.6c-1-1.1-1.5-2.5-1.5-4.2c0-1.8,0.6-3.3,1.7-4.5
		c1.2-1.2,2.6-1.8,4.5-1.8c1.1,0,2.1,0.1,2.9,0.4v2.4c-0.8-0.5-1.7-0.7-2.7-0.7c-1.1,0-2,0.4-2.7,1.1c-0.7,0.7-1,1.7-1,2.8
		c0,1.1,0.3,2.1,1,2.8C118.1,109.6,119,110,120.1,110z M111.6,111.8c-0.3,0.2-0.6,0.4-1,0.4c-0.4,0-0.7-0.1-1-0.4
		c-0.3-0.2-0.4-0.6-0.4-0.9c0-0.4,0.1-0.7,0.4-0.9c0.3-0.2,0.6-0.4,1-0.4c0.4,0,0.7,0.1,1,0.4c0.3,0.2,0.4,0.6,0.4,0.9
		C112,111.2,111.9,111.5,111.6,111.8z M388.8,93.7h-15.4V23.9h15.4V93.7z M266.7,111.5h-13.1V99.7h13.1V111.5z M166.9,111.5
		c-3.4,0-5.7,0-5.7,0V99.7c0,0,0.9,0,3.6,0c6.3,0,11.8-5.4,11.8-14.2c0-16,0-40.3,0-40.3H192c0,0,0,23.3,0,42.2
		C192,93.9,187.8,111.5,166.9,111.5z M315.3,23.9h13.1v11.8h-13.1V23.9z M203.9,80.4c0-0.4,0-0.7,0-1h0v-7.2V23.9h15.4
		c0,0,0,36,0,47.3c0,3.9,1.4,6.1,2.7,7.1h27.8c1.3-1.1,2.7-3.2,2.7-7.1c0-11.4,0-26.1,0-26.1h15.4c0,0,0,15.6,0,27.1
		c0,3.2-1.1,5-2.3,6h79.1c-1.2-12-11.2-21.3-23.5-21.3c-6.8,0-13,2.9-17.3,7.6l-9.5-9.5c6.9-7.6,16.9-12.3,28-12.3
		c20.1,0,36.6,15.7,37.8,35.5h0.1v15.4c0,0-99,0-139.5,0C208.2,93.8,203.9,84.1,203.9,80.4z M384.5,12h5.5v4.8h-17.8V12h4
		c-0.6-1.4-1-2.5-1-3.5c0-2.4,0.8-4.4,2.3-6c1.6-1.5,2.2-2.3,5.9-2.3c3.8,0,6.5,4.8,6.5,4.8l-3.6,2.4c0,0-1.3-2.3-3.5-2.3
		c-1.5,0-2.6,1.1-2.6,3.5C380.3,10.8,381.7,12,384.5,12z" />
				<path style="fill:#B12D3E;" d="M67.6,49.1v2.1h-0.2c-0.6,4.2-2.8,10.7-10.9,10.7c-11.5,0-29.7,0-42.3,0v11.8h53.3v14.2H0v-9.5v-4.7V61.8
		c0,0,0-0.5,0-1.2c0-0.4,0-0.9,0-1.4C0,56,1.7,47.6,10.2,47.6c11.5,0,30.2,0,43.2,0V35.7H0V21.5c0,0,35.6,0,55.1,0
		c9.6,0,11.8,7.8,12.3,11.8h0.1v1.9c0,0.3,0,0.4,0,0.4v11.8C67.6,47.6,67.6,48.1,67.6,49.1z M143.4,61.8v24.9H128V61.8H90.1h-3.6
		H74.7V21.5h15.4v24.9H128V21.5h15.4v24.9h8.3v15.4H143.4z M103.4,102.7c0,0.1-0.1,0.2-0.2,0.4c-0.1,0.2-0.2,0.3-0.3,0.5l-2.6,4h3.1
		v-3.8C103.4,103.5,103.4,103.1,103.4,102.7L103.4,102.7z M105.6,109.4v2.5h-2.2v-2.5h-5.1v-1.5l4.9-7.6h2.4v7.4h1.4v1.7H105.6z
		 M93.8,107.7l-2.4,2.2v0h4.8v2h-7.6V110l3.3-3.2c0.7-0.7,1.2-1.2,1.5-1.7c0.3-0.5,0.4-0.9,0.4-1.4c0-1.1-0.6-1.7-1.8-1.7
		c-1,0-2,0.4-2.9,1.2v-2.2c1-0.7,2.1-1,3.4-1c1.1,0,2.1,0.3,2.7,0.9c0.7,0.6,1,1.4,1,2.4C96.3,104.7,95.4,106.2,93.8,107.7z
		 M80.8,102.2h-1.3v3.4h1.2c0.6,0,1.1-0.2,1.4-0.5c0.4-0.3,0.5-0.8,0.5-1.3C82.7,102.7,82,102.2,80.8,102.2z M82.7,106.7L82.7,106.7
		c0.5,0.2,1.1,0.8,1.8,1.8l2.2,3.5h-2.9l-1.8-3c-0.4-0.6-0.7-1-0.9-1.2c-0.2-0.2-0.5-0.3-0.8-0.3h-0.8v4.5H77v-11.6h4.1
		c2.8,0,4.2,1.1,4.2,3.2c0,0.8-0.2,1.5-0.7,2C84.1,106,83.5,106.4,82.7,106.7z M69.2,103.3c-0.1-0.3-0.1-0.6-0.2-1H69
		c0,0.3-0.1,0.7-0.2,1l-1.3,4.1h3.1L69.2,103.3z M72,111.9l-0.9-2.7h-4.2l-0.9,2.7h-2.7l4.3-11.6h2.9l4.2,11.6H72z M56.2,103.3
		c-0.1-0.3-0.1-0.6-0.2-1h-0.1c0,0.3-0.1,0.7-0.2,1l-1.3,4.1h3.1L56.2,103.3z M59,111.9l-0.9-2.7h-4.2l-0.9,2.7h-2.7l4.3-11.6h2.9
		l4.2,11.6H59z M45.7,107.3c-0.4-0.3-0.9-0.4-1.5-0.4h-1.5v3.2h1.5c0.6,0,1.1-0.1,1.5-0.4c0.4-0.3,0.5-0.7,0.5-1.2
		C46.2,107.9,46,107.5,45.7,107.3z M43.8,102.1h-1.1v2.9h1.2c0.6,0,1-0.1,1.3-0.4c0.3-0.3,0.5-0.6,0.5-1.1
		C45.7,102.6,45.1,102.1,43.8,102.1z M46.1,105.6L46.1,105.6c0.8,0.1,1.5,0.4,2,0.9c0.5,0.5,0.7,1.1,0.7,1.9c0,1.1-0.4,1.9-1.1,2.5
		c-0.8,0.6-1.8,0.9-3.1,0.9h-4.4v-11.6h4.1c1.3,0,2.2,0.2,2.9,0.7c0.7,0.5,1,1.1,1,2c0,0.6-0.2,1.2-0.6,1.7
		C47.3,105.1,46.7,105.5,46.1,105.6z M34.3,111.9v-4.8h-5v4.8h-2.5v-11.6h2.5v4.7h5v-4.7h2.5v11.6H34.3z M24.7,111.9h-3.1l-3.5-5.1
		c-0.1-0.1-0.2-0.3-0.3-0.6h0v5.7h-2.5v-11.6h2.5v5.5h0c0.1-0.2,0.2-0.4,0.3-0.6l3.3-4.9h3l-4.2,5.6L24.7,111.9z M7.4,103.3
		c-0.1-0.3-0.1-0.6-0.2-1H7.1c0,0.3-0.1,0.7-0.2,1l-1.3,4.1h3.1L7.4,103.3z M10.2,111.9l-0.9-2.7H5.1l-0.9,2.7H1.5l4.3-11.6h2.9
		l4.2,11.6H10.2z" />
			</g>
	
    </defs>
    </svg>