<svg id="Layer_1" xmlns="http://www.w3.org/2000/svg" xmlns:xlink="http://www.w3.org/1999/xlink" viewBox="0 0 320 500">
	<defs>
		<symbol id="search" viewBox="0 0 56.966 56.966">
			<path d="M55.146,51.887L41.588,37.786c3.486-4.144,5.396-9.358,5.396-14.786c0-12.682-10.318-23-23-23s-23,10.318-23,23
                    s10.318,23,23,23c4.761,0,9.298-1.436,13.177-4.162l13.661,14.208c0.571,0.593,1.339,0.92,2.162,0.92
                    c0.779,0,1.518-0.297,2.079-0.837C56.255,54.982,56.293,53.08,55.146,51.887z M23.984,6c9.374,0,17,7.626,17,17s-7.626,17-17,17
                    s-17-7.626-17-17S14.61,6,23.984,6z" />
		</symbol>
		<symbol id="left-arrow" viewBox="0 0 240.823 240.823">
			<path id="Chevron_Right" d="M57.633,129.007L165.93,237.268c4.752,4.74,12.451,4.74,17.215,0c4.752-4.74,4.752-12.439,0-17.179
                    l-99.707-99.671l99.695-99.671c4.752-4.74,4.752-12.439,0-17.191c-4.752-4.74-12.463-4.74-17.215,0L57.621,111.816
                    C52.942,116.507,52.942,124.327,57.633,129.007z" />
		</symbol>
		<symbol id="user-circle" viewBox="0 0 458 480">
			<path d="m240 0c-132.546875 0-240 107.453125-240 240s107.453125 240 240 240c7.230469 0 14.433594-.324219 21.601562-.96875 6.664063-.597656 13.269532-1.511719 19.824219-2.65625l2.519531-.445312c121.863282-22.742188 206.359376-134.550782 194.960938-257.996094-11.398438-123.445313-114.9375-217.8945315-238.90625-217.933594zm-19.28125 463.152344h-.566406c-6.222656-.550782-12.398438-1.382813-18.519532-2.449219-.351562-.0625-.703124-.101563-1.046874-.167969-5.984376-1.070312-11.90625-2.398437-17.769532-3.949218l-1.417968-.363282c-5.71875-1.550781-11.375-3.351562-16.949219-5.351562-.578125-.207032-1.160157-.390625-1.738281-.605469-5.464844-2.007813-10.832032-4.257813-16.117188-6.691406-.65625-.292969-1.3125-.574219-1.96875-.886719-5.183594-2.398438-10.265625-5.101562-15.25-7.945312-.703125-.398438-1.414062-.796876-2.117188-1.191407-4.90625-2.863281-9.699218-5.933593-14.402343-9.175781-.710938-.496094-1.429688-.976562-2.136719-1.472656-4.621094-3.277344-9.125-6.757813-13.511719-10.398438l-1.207031-1.054687v-67.449219c.058594-48.578125 39.421875-87.941406 88-88h112c48.578125.058594 87.941406 39.421875 88 88v67.457031l-1.0625.886719c-4.472656 3.734375-9.0625 7.265625-13.777344 10.601562-.625.4375-1.257812.855469-1.878906 1.285157-4.757812 3.304687-9.632812 6.414062-14.625 9.335937-.625.363282-1.265625.707032-1.886719 1.066406-5.058593 2.878907-10.203125 5.597657-15.449219 8.046876-.601562.28125-1.207031.542968-1.816406.800781-5.328125 2.457031-10.742187 4.71875-16.246094 6.742187-.546874.203125-1.097656.378906-1.601562.570313-5.601562 2.007812-11.28125 3.824219-17.03125 5.382812l-1.378906.34375c-5.871094 1.550781-11.796875 2.886719-17.789063 3.960938-.34375.0625-.6875.105469-1.03125.160156-6.128906 1.070313-12.3125 1.902344-18.539062 2.457031h-.566407c-6.398437.550782-12.800781.847656-19.28125.847656-6.480468 0-12.933593-.242187-19.320312-.792968zm179.28125-66.527344v-52.625c-.066406-57.410156-46.589844-103.933594-104-104h-112c-57.410156.066406-103.933594 46.589844-104 104v52.617188c-86.164062-87.941407-85.203125-228.9375 2.148438-315.699219 87.351562-86.757813 228.351562-86.757813 315.703124 0 87.351563 86.761719 88.3125 227.757812 2.148438 315.699219zm0 0" />
			<path d="m240 64c-44.183594 0-80 35.816406-80 80s35.816406 80 80 80 80-35.816406 80-80c-.046875-44.164062-35.835938-79.953125-80-80zm0 144c-35.347656 0-64-28.652344-64-64s28.652344-64 64-64 64 28.652344 64 64c-.039062 35.328125-28.671875 63.960938-64 64zm0 0" />
		</symbol>
		<symbol id="password" viewBox="0 0 58 58">
			<path d="M29,30c-2.206,0-4,1.794-4,4v6c0,2.206,1.794,4,4,4s4-1.794,4-4v-6C33,31.794,31.206,30,29,30z M31,40c0,1.103-0.897,2-2,2
		s-2-0.897-2-2v-6c0-1.103,0.897-2,2-2s2,0.897,2,2V40z" />
			<path d="M40,21.314V10.22C40,4.585,35.065,0,29,0S18,4.585,18,10.22c0,0.553,0.447,1,1,1s1-0.447,1-1C20,5.688,24.037,2,29,2
		s9,3.688,9,8.22v9.938c-0.188-0.095-0.38-0.179-0.57-0.268c-0.393-0.184-0.792-0.356-1.198-0.515
		c-0.261-0.102-0.523-0.198-0.787-0.289c-0.26-0.089-0.518-0.178-0.782-0.256c-0.437-0.13-0.879-0.241-1.324-0.341
		c-0.193-0.043-0.387-0.084-0.582-0.122c-0.523-0.101-1.049-0.183-1.579-0.242c-0.12-0.013-0.24-0.021-0.36-0.032
		C30.213,18.036,29.608,18,29,18C17.972,18,9,26.972,9,38s8.972,20,20,20s20-8.972,20-20C49,31.034,45.416,24.896,40,21.314z M29,56
		c-9.925,0-18-8.075-18-18s8.075-18,18-18c0.54,0,1.072,0.034,1.601,0.081c0.171,0.016,0.341,0.034,0.512,0.054
		c0.377,0.044,0.749,0.104,1.118,0.171c0.256,0.047,0.511,0.098,0.765,0.156c0.348,0.079,0.693,0.167,1.033,0.266
		c0.277,0.081,0.551,0.173,0.824,0.268c0.179,0.062,0.355,0.128,0.531,0.195c0.992,0.38,1.953,0.847,2.873,1.401
		C43.485,25.745,47,31.463,47,38C47,47.925,38.925,56,29,56z" />
		</symbol>
		<symbol id="weather" viewBox="-42 0 512 512">
			<path d="m84.144531 38.53125c4.394531 19.445312 27.988281 27.109375 42.96875 13.960938 2.53125-2.222657 6.324219.53125 4.992188 3.625-7.878907 18.3125 6.703125 38.382812 26.554687 36.550781 3.355469-.308594 4.804688 4.144531 1.90625 5.867187-17.136718 10.1875-17.136718 34.996094 0 45.179688 2.898438 1.722656 1.449219 6.175781-1.90625 5.867187-19.851562-1.832031-34.433594 18.238281-26.554687 36.550781 1.332031 3.097657-2.460938 5.847657-4.992188 3.625-14.980469-13.148437-38.578125-5.480468-42.96875 13.960938-.742187 3.289062-5.425781 3.289062-6.167969 0-4.390624-19.445312-27.984374-27.109375-42.96875-13.960938-2.53125 2.222657-6.324218-.527343-4.992187-3.625 7.878906-18.3125-6.703125-38.382812-26.554687-36.550781-3.355469.308594-4.804688-4.144531-1.90625-5.867187 17.136718-10.183594 17.136718-34.992188 0-45.179688-2.894532-1.722656-1.449219-6.175781 1.90625-5.867187 19.851562 1.832031 34.433593-18.238281 26.554687-36.550781-1.332031-3.09375 2.460937-5.847657 4.992187-3.625 14.984376 13.148437 38.578126 5.484374 42.96875-13.960938.742188-3.289062 5.425782-3.289062 6.167969 0zm0 0" fill="#fd8f31" />
			<path d="m160.566406 143.714844c-17.136718-10.183594-17.136718-34.992188 0-45.179688 2.898438-1.71875 1.449219-6.175781-1.90625-5.863281-19.847656 1.832031-34.429687-18.242187-26.554687-36.554687 1.332031-3.09375-2.457031-5.847657-4.992188-3.625-14.980469 13.152343-38.574219 5.484374-42.96875-13.960938-.742187-3.289062-5.425781-3.289062-6.167969 0-1.625 7.191406-5.875 12.761719-11.34375 16.277344 19.398438 15.589844 31.824219 39.496094 31.824219 66.320312 0 26.820313-12.425781 50.730469-31.824219 66.320313 5.46875 3.511719 9.71875 9.085937 11.34375 16.273437.742188 3.289063 5.429688 3.289063 6.167969 0 4.394531-19.445312 27.988281-27.109375 42.96875-13.960937 2.535157 2.222656 6.324219-.527344 4.992188-3.625-7.875-18.3125 6.707031-38.382813 26.554687-36.550781 3.355469.308593 4.804688-4.148438 1.90625-5.871094zm0 0" fill="#ff7f1f" />
			<path d="m115.933594 121.125c0 19.261719-15.613282 34.871094-34.875 34.871094-19.257813 0-34.871094-15.609375-34.871094-34.871094 0-19.257812 15.613281-34.871094 34.871094-34.871094 19.261718 0 34.875 15.613282 34.875 34.871094zm0 0" fill="#fccf3f" />
			<path d="m334.011719 315.355469v-253.195313c0-34.332031-27.832031-62.160156-62.160157-62.160156-34.332031 0-62.160156 27.828125-62.160156 62.160156v253.195313c-27.8125 19.566406-45.984375 51.910156-45.984375 88.5 0 59.726562 48.417969 108.144531 108.144531 108.144531 59.726563 0 108.144532-48.417969 108.144532-108.144531 0-36.589844-18.175782-68.933594-45.984375-88.5zm0 0" fill="#d8d8d8" />
			<path d="m271.851562 476.582031c-41.183593 0-74.6875-33.507812-74.6875-74.6875 0-31.273437 19.433594-59.117187 48.59375-69.980469v-269.753906c0-14.390625 11.703126-26.09375 26.09375-26.09375 14.386719 0 26.09375 11.703125 26.09375 26.09375v269.753906c29.15625 10.859376 48.59375 38.703126 48.59375 69.976563 0 41.183594-33.503906 74.691406-74.6875 74.691406zm0 0" fill="#f3e8d7" />
			<path d="m245.757812 109.871094v222.042968c-29.160156 10.859376-48.59375 38.703126-48.59375 69.976563 0 41.183594 33.503907 74.6875 74.6875 74.6875 41.183594 0 74.6875-33.503906 74.6875-74.6875 0-31.273437-19.4375-59.117187-48.59375-69.976563v-222.042968zm0 0" fill="#fc4e51" />
			<g fill="#0d6e9a">
				<path d="m420.105469 180.21875h-44.824219c-4.269531 0-7.726562-3.460938-7.726562-7.726562 0-4.265626 3.457031-7.726563 7.726562-7.726563h44.824219c4.265625 0 7.726562 3.460937 7.726562 7.726563 0 4.265624-3.460937 7.726562-7.726562 7.726562zm0 0" />
				<path d="m395.632812 117.597656h-20.351562c-4.269531 0-7.726562-3.460937-7.726562-7.726562s3.457031-7.726563 7.726562-7.726563h20.351562c4.265626 0 7.726563 3.460938 7.726563 7.726563s-3.460937 7.726562-7.726563 7.726562zm0 0" />
				<path d="m402.84375 54.976562h-27.5625c-4.269531 0-7.726562-3.460937-7.726562-7.726562s3.457031-7.726562 7.726562-7.726562h27.5625c4.269531 0 7.726562 3.460937 7.726562 7.726562s-3.457031 7.726562-7.726562 7.726562zm0 0" />
				<path d="m402.84375 305.460938h-27.5625c-4.269531 0-7.726562-3.460938-7.726562-7.726563 0-4.269531 3.457031-7.726563 7.726562-7.726563h27.5625c4.269531 0 7.726562 3.457032 7.726562 7.726563 0 4.265625-3.457031 7.726563-7.726562 7.726563zm0 0" />
				<path d="m395.632812 242.839844h-20.351562c-4.269531 0-7.726562-3.460938-7.726562-7.726563s3.457031-7.726562 7.726562-7.726562h20.351562c4.265626 0 7.726563 3.460937 7.726563 7.726562s-3.460937 7.726563-7.726563 7.726563zm0 0" />
			</g>
			<path d="m297.945312 331.914062v-222.042968h-52.1875v222.042968s36.074219 16.738282 36.074219 69.976563c0 29.601563-17.308593 55.234375-42.335937 67.3125 9.792968 4.726563 20.769531 7.375 32.351562 7.375 41.183594 0 74.691406-33.503906 74.691406-74.6875 0-31.273437-19.4375-59.113281-48.59375-69.976563zm0 0" fill="#e5394b" />
		</symbol>
		<symbol id="comments-icon" viewBox="-21 -47 682.66669 682">
			<path d="m552.011719-1.332031h-464.023438c-48.515625 0-87.988281 39.472656-87.988281 87.988281v283.972656c0 48.421875 39.300781 87.824219 87.675781 87.988282v128.871093l185.183594-128.859375h279.152344c48.515625 0 87.988281-39.472656 87.988281-88v-283.972656c0-48.515625-39.472656-87.988281-87.988281-87.988281zm-83.308594 330.011719h-297.40625v-37.5h297.40625zm0-80h-297.40625v-37.5h297.40625zm0-80h-297.40625v-37.5h297.40625zm0 0" />
		</symbol>
		<symbol id="fire-icon" viewBox="-22 0 134 134.06032">
			<g id="surface1">
				<path d="M 23.347656 134.058594 C 8.445312 84.953125 39.933594 67.023438 39.933594 67.023438 C 37.730469 93.226562 52.621094 113.640625 52.621094 113.640625 C 58.097656 111.988281 68.550781 104.265625 68.550781 104.265625 C 68.550781 113.640625 63.035156 134.046875 63.035156 134.046875 C 63.035156 134.046875 82.34375 119.117188 88.421875 94.320312 C 94.492188 69.523438 76.859375 44.628906 76.859375 44.628906 C 77.921875 62.179688 71.984375 79.441406 60.351562 92.628906 C 60.933594 91.957031 61.421875 91.210938 61.796875 90.402344 C 63.886719 86.222656 67.242188 75.359375 65.277344 50.203125 C 62.511719 14.890625 30.515625 0 30.515625 0 C 33.273438 21.515625 25.003906 26.472656 5.632812 67.3125 C -13.738281 108.144531 23.347656 134.058594 23.347656 134.058594 Z M 23.347656 134.058594 " style=" stroke:none;fill-rule:nonzero;fill-opacity:1;" />
			</g>
		</symbol>
		<symbol id="close" viewBox="0 0 475.2 475.2">
			<g>
				<path d="M405.6,69.6C360.7,24.7,301.1,0,237.6,0s-123.1,24.7-168,69.6S0,174.1,0,237.6s24.7,123.1,69.6,168s104.5,69.6,168,69.6
                                    s123.1-24.7,168-69.6s69.6-104.5,69.6-168S450.5,114.5,405.6,69.6z M386.5,386.5c-39.8,39.8-92.7,61.7-148.9,61.7
                                    s-109.1-21.9-148.9-61.7c-82.1-82.1-82.1-215.7,0-297.8C128.5,48.9,181.4,27,237.6,27s109.1,21.9,148.9,61.7
                                    C468.6,170.8,468.6,304.4,386.5,386.5z" />
				<path d="M342.3,132.9c-5.3-5.3-13.8-5.3-19.1,0l-85.6,85.6L152,132.9c-5.3-5.3-13.8-5.3-19.1,0c-5.3,5.3-5.3,13.8,0,19.1
                                    l85.6,85.6l-85.6,85.6c-5.3,5.3-5.3,13.8,0,19.1c2.6,2.6,6.1,4,9.5,4s6.9-1.3,9.5-4l85.6-85.6l85.6,85.6c2.6,2.6,6.1,4,9.5,4
                                    c3.5,0,6.9-1.3,9.5-4c5.3-5.3,5.3-13.8,0-19.1l-85.4-85.6l85.6-85.6C347.6,146.7,347.6,138.2,342.3,132.9z" />
			</g>
		</symbol>
		<symbol id="facebook-icon" viewBox="0 0 408.788 408.788">
			<path d="M353.701,0H55.087C24.665,0,0.002,24.662,0.002,55.085v298.616c0,30.423,24.662,55.085,55.085,55.085
                                    h147.275l0.251-146.078h-37.951c-4.932,0-8.935-3.988-8.954-8.92l-0.182-47.087c-0.019-4.959,3.996-8.989,8.955-8.989h37.882
                                    v-45.498c0-52.8,32.247-81.55,79.348-81.55h38.65c4.945,0,8.955,4.009,8.955,8.955v39.704c0,4.944-4.007,8.952-8.95,8.955
                                    l-23.719,0.011c-25.615,0-30.575,12.172-30.575,30.035v39.389h56.285c5.363,0,9.524,4.683,8.892,10.009l-5.581,47.087
                                    c-0.534,4.506-4.355,7.901-8.892,7.901h-50.453l-0.251,146.078h87.631c30.422,0,55.084-24.662,55.084-55.084V55.085
                                    C408.786,24.662,384.124,0,353.701,0z" />
		</symbol>
		<symbol id="argaam" viewBox="0 0 271.3 122.9">
			<g id="XMLID_4378_">
				<g id="XMLID_4379_">
					<path id="XMLID_4391_" style="fill:#ffffff;" d="M233,99.7c0,7.8-13.2,7.8-13.2,7.8v15.3c0,0,28.5-1.2,28.5-23.4V30.7L233,37.4V99.7z" />
					<path id="XMLID_4390_" style="fill:#ffffff;" d="M256,15.3h15.3v-4.8l-5.5,0c-2.1,0-3.1-0.9-3.1-2.7c0-2.2,1-3.3,2.9-3.3l3.8,0V0l-3.3,0
                c-4.6,0-8.1,3.2-8.1,8c0,0.9,0.2,1.7,0.6,2.6l-2.6,0L256,15.3z" />
					<polygon id="XMLID_4389_" style="fill:#ffffff;" points="256,27.2 256,92.2 271.3,92.2 271.3,20.6 		" />
					<rect id="XMLID_4388_" x="210.1" y="0" style="fill:#ffffff;" width="15.3" height="15.3" />
					<polygon id="XMLID_4387_" style="fill:#ffffff;" points="206.3,0 191,0 191,15.3 206.3,15.3 		" />
					<path id="XMLID_4384_" style="fill:#ffffff;" d="M41.6,41.5c0,4.7,0,35.4,0,35.4l-21.9,0C-0.6,76.9,0,97.5,0,97.5l0,18.8l15.3,6.6l0-19.7
                c0-12,8.1-10.9,8.1-10.9l40.4,0c18.1,0,21.9-14.7,21.9-19.4c0-4,0-52.2,0-52.2H63.1C46.9,21.2,41.6,36.8,41.6,41.5z M70.5,35.9
                l0,29c0,0.3,0,0.6,0,0.9c-0.8,12.4-13.6,11-13.6,11l0-30.3C56.9,35,70.5,35.9,70.5,35.9z" />
					<path id="XMLID_8_" style="fill:#ffffff;" d="M205.7,30.7c-15.3,0-27.7,12.4-27.7,27.7v0.6c0,6.6,1.9,12.7,5.2,17.8h-74.5V20.6l-15.3,6.6
                v49.7v15.3l117.7,0c0,0,0,0,0,0h2.3c0,0,0,0,0,0l7.8,0h4.2V30.7H205.7z M193.7,58.1c0-6.6,5.4-12,12-12h4.4v30.8h-1.8
                c-8,0-14.5-6.5-14.5-14.5V58.1z" />
				</g>
			</g>
		</symbol>
		<symbol id="menu" viewBox="0 0 512 512">
			<g>
				<g>
					<path d="M491.318,235.318H20.682C9.26,235.318,0,244.577,0,256s9.26,20.682,20.682,20.682h470.636
                                        c11.423,0,20.682-9.259,20.682-20.682C512,244.578,502.741,235.318,491.318,235.318z" />
				</g>
			</g>
			<g>
				<g>
					<path d="M491.318,78.439H20.682C9.26,78.439,0,87.699,0,99.121c0,11.422,9.26,20.682,20.682,20.682h470.636
                                        c11.423,0,20.682-9.26,20.682-20.682C512,87.699,502.741,78.439,491.318,78.439z" />
				</g>
			</g>
			<g>
				<g>
					<path d="M491.318,392.197H20.682C9.26,392.197,0,401.456,0,412.879s9.26,20.682,20.682,20.682h470.636
                                        c11.423,0,20.682-9.259,20.682-20.682S502.741,392.197,491.318,392.197z" />
				</g>
			</g>
		</symbol>
		<symbol id="sport" viewBox="0 0 384 81.4">
			<g id="XMLID_1_">
				<g id="XMLID_13_">
					<g>
						<path id="XMLID_19_" class="st0" d="M0.3,0v13.6H50v10.6H13.3c0,0-13.3-1.7-13.3,13.3c0,16.1,0,24.3,0,24.3h61.8V48.3H13.5V37.6
                                                h36.7c0,0,12.2,1.4,11.5-13.4C61.2,9.4,64.1,0,49.9,0C35.8,0,0.3,0,0.3,0z" />
						<polyline id="XMLID_18_" class="st0" points="130.8,38.2 130.8,61.9 117,61.9 117,38.2 68.8,38.2 68.8,0 82.6,0 82.6,23.9 
                                                117.1,23.9 117.1,0 130.6,0 130.6,23.9 			" />
					</g>
				</g>
				<g>
					<path class="st1" d="M209.2,47.7h-35.9c-1.9,0-3.4-0.1-4.7-0.2c-1.2-0.2-2.2-0.5-2.9-0.9c-0.7-0.4-1.2-1.1-1.5-1.8
                                            c-0.3-0.8-0.4-1.8-0.4-3v-14H153v15.9c0,2.8,0.3,5.1,0.9,7c0.6,1.9,1.5,3.5,2.9,4.7c1.3,1.2,3.1,2.1,5.3,2.6
                                            c2.2,0.5,5,0.8,8.2,0.8H220V20.5h-10.8V47.7z" />
					<path class="st1" d="M193.7,16.3c1.6,0,3-0.7,4.2-2c1.2-1.3,1.7-2.9,1.7-4.8c0-1.9-0.6-3.5-1.7-4.8c-1.2-1.3-2.5-2-4.2-2
                                            c-1.6,0-3,0.7-4.2,2c-1.2,1.3-1.7,2.9-1.7,4.8c0,1.9,0.6,3.5,1.7,4.8C190.7,15.6,192.1,16.3,193.7,16.3z" />
					<path class="st1" d="M180.2,16.3c1.6,0,3-0.7,4.2-2c1.2-1.3,1.7-2.9,1.7-4.8c0-1.9-0.6-3.5-1.7-4.8c-1.2-1.3-2.5-2-4.2-2
                                            c-1.6,0-3,0.7-4.2,2c-1.2,1.3-1.7,2.9-1.7,4.8c0,1.9,0.6,3.5,1.7,4.8C177.2,15.6,178.6,16.3,180.2,16.3z" />
					<path class="st1" d="M235.7,53.4c0,2.4-0.1,4.4-0.3,6.1c-0.2,1.7-0.6,3.1-1.3,4.2c-0.7,1.1-1.7,1.9-3,2.4
                                            c-1.3,0.5-3.1,0.8-5.4,0.9v11.7c4.2-0.1,7.6-0.5,10.3-1.4c2.7-0.9,4.8-2.4,6.3-4.4c1.5-2,2.6-4.6,3.2-7.8
                                            c0.6-3.2,0.9-7.1,0.9-11.7V24.7h-10.8V53.4z" />
					<path class="st1" d="M308.4,67.8c-1.6,0-3,0.7-4.2,2c-1.2,1.3-1.7,2.9-1.7,4.8c0,1.9,0.6,3.5,1.7,4.8c1.2,1.3,2.5,2,4.2,2
                                            c1.6,0,3-0.7,4.2-2c1.2-1.3,1.7-2.9,1.7-4.8c0-1.9-0.6-3.5-1.7-4.8C311.4,68.5,310,67.8,308.4,67.8z" />
					<path class="st1" d="M373.2,20.5v27.2H368c-3.3,0-4.9-2.2-4.9-6.6V24.7h-10.8v18.4c0,1.9-0.6,3.2-1.7,3.8
                                            c-1.1,0.6-2.5,0.9-4.1,0.9c-2,0-3.6-0.6-4.5-1.8c-1-1.2-1.5-2.8-1.5-4.9V24.7h-10.6v18.4c0,1.1-0.1,1.9-0.3,2.5
                                            c-0.2,0.6-0.6,1.1-1.1,1.4c-0.5,0.3-1.1,0.5-2,0.6c-0.8,0.1-1.8,0.1-3,0.1h-3.4c-2.7,0-4.4-0.5-5.2-1.5c-0.8-1-1.2-2.7-1.2-5.1
                                            V20.5H303v21.6c0,2.4-0.4,3.9-1.1,4.6c-0.7,0.7-2.1,1-3.9,1h-5.1c0,0,0,0,0,0c0,0,0,0,0,0h-6.1v-2.8c0-3.7-0.3-7-0.8-10
                                            c-0.6-3-1.5-5.7-2.7-7.9c-1.3-2.2-2.9-3.9-5-5.1c-2.1-1.2-4.6-1.8-7.7-1.8c-2.7,0-5.1,0.6-7.2,1.8c-2.1,1.2-3.9,2.8-5.3,4.8
                                            c-1.4,2-2.5,4.2-3.3,6.7c-0.7,2.5-1.1,5-1.1,7.6c0,3.2,0.4,5.9,1.2,8.2c0.8,2.3,2,4.1,3.5,5.6c1.5,1.4,3.3,2.5,5.3,3.1
                                            c2,0.6,4.3,1,6.7,1h5.2c-0.2,1.3-0.6,2.4-1.2,3.4c-0.6,1-1.5,1.9-2.8,2.6c-1.2,0.7-2.8,1.3-4.8,1.7c-1.9,0.4-4.3,0.6-7.2,0.6h-1.9
                                            v11.7h2.6c8.4,0,14.6-1.6,18.8-4.8c4.2-3.2,6.7-8.2,7.4-15.2h6.3c0,0,0,0,0,0c0,0,0,0,0,0h6.8c1.1,0,2.2,0,3.4-0.1
                                            c1.1-0.1,2.2-0.3,3.3-0.6c1.1-0.3,2-0.8,3-1.5c0.9-0.7,1.7-1.6,2.4-2.6c1,2,2.2,3.4,3.7,4c1.5,0.6,3,0.9,4.7,0.9c0,0,0,0,0,0h3.2
                                            c3.7,0,6.8-0.3,9.1-0.8c2.4-0.5,4.3-1.9,5.8-4.2c0.8,1.2,2.2,2.4,4.1,3.4c1.9,1.1,4.3,1.6,7.1,1.6c0.9,0,1.8,0,2.8-0.1
                                            c1-0.1,2-0.3,2.9-0.6c1-0.3,2-0.8,2.9-1.5c0.9-0.7,1.8-1.6,2.7-2.8c1.1,1.7,2.3,3,3.8,3.8c1.5,0.8,3.7,1.2,6.6,1.2H384V20.5H373.2
                                            z M275.9,47.7h-5.5c-1.9,0-3.4-0.6-4.5-1.7c-1.1-1.1-1.7-3.2-1.7-6.3c0-2.4,0.5-4.5,1.4-6.1c0.9-1.6,2.4-2.4,4.4-2.4
                                            c2.3,0,3.8,1,4.7,3c0.8,2,1.2,4.6,1.2,7.6V47.7z" />
				</g>
			</g>
		</symbol>
		<symbol id="sport24w" viewBox="0 0 384 82">
			<g id="XMLID_1_">
				<g id="XMLID_13_">
					<g>
						<path id="XMLID_19_" style="fill:#B62025;" d="M0.3,0.3v13.6H50v10.6H13.3c0,0-13.3-1.7-13.3,13.3c0,16.1,0,24.3,0,24.3h61.8V48.5H13.5
                                    V37.9h36.7c0,0,12.2,1.4,11.5-13.4C61.2,9.7,64.1,0.3,49.9,0.3C35.8,0.3,0.3,0.3,0.3,0.3z" />
						<polyline id="XMLID_18_" style="fill:#B62025;" points="130.8,38.4 130.8,62.2 117,62.2 117,38.4 68.8,38.4 68.8,0.3 82.6,0.3 82.6,24.2 
                                    117.1,24.2 117.1,0.3 130.6,0.3 130.6,24.2 			" />
					</g>
				</g>
				<g>
					<path style="fill:#2D639D;" d="M209.2,48h-35.9c-1.9,0-3.4-0.1-4.7-0.2c-1.2-0.2-2.2-0.5-2.9-0.9c-0.7-0.4-1.2-1.1-1.5-1.8
                                c-0.3-0.8-0.4-1.8-0.4-3V28H153v15.9c0,2.8,0.3,5.1,0.9,7c0.6,1.9,1.5,3.5,2.9,4.7c1.3,1.2,3.1,2.1,5.3,2.6c2.2,0.5,5,0.8,8.2,0.8
                                H220V20.8h-10.8V48z" />
					<path style="fill:#2D639D;" d="M193.7,16.5c1.6,0,3-0.7,4.2-2c1.2-1.3,1.7-2.9,1.7-4.8c0-1.9-0.6-3.5-1.7-4.8c-1.2-1.3-2.5-2-4.2-2
                                c-1.6,0-3,0.7-4.2,2c-1.2,1.3-1.7,2.9-1.7,4.8c0,1.9,0.6,3.5,1.7,4.8C190.7,15.9,192.1,16.5,193.7,16.5z" />
					<path style="fill:#2D639D;" d="M180.2,16.5c1.6,0,3-0.7,4.2-2c1.2-1.3,1.7-2.9,1.7-4.8c0-1.9-0.6-3.5-1.7-4.8c-1.2-1.3-2.5-2-4.2-2
                                c-1.6,0-3,0.7-4.2,2c-1.2,1.3-1.7,2.9-1.7,4.8c0,1.9,0.6,3.5,1.7,4.8C177.2,15.9,178.6,16.5,180.2,16.5z" />
					<path style="fill:#2D639D;" d="M235.7,53.6c0,2.4-0.1,4.4-0.3,6.1c-0.2,1.7-0.6,3.1-1.3,4.2c-0.7,1.1-1.7,1.9-3,2.4
                                c-1.3,0.5-3.1,0.8-5.4,0.9V79c4.2-0.1,7.6-0.5,10.3-1.4c2.7-0.9,4.8-2.4,6.3-4.4c1.5-2,2.6-4.6,3.2-7.8c0.6-3.2,0.9-7.1,0.9-11.7
                                V25h-10.8V53.6z" />
					<path style="fill:#2D639D;" d="M308.4,68.1c-1.6,0-3,0.7-4.2,2c-1.2,1.3-1.7,2.9-1.7,4.8c0,1.9,0.6,3.5,1.7,4.8c1.2,1.3,2.5,2,4.2,2
                                c1.6,0,3-0.7,4.2-2c1.2-1.3,1.7-2.9,1.7-4.8c0-1.9-0.6-3.5-1.7-4.8C311.4,68.7,310,68.1,308.4,68.1z" />
					<path style="fill:#2D639D;" d="M373.2,20.8V48H368c-3.3,0-4.9-2.2-4.9-6.6V25h-10.8v18.4c0,1.9-0.6,3.2-1.7,3.8c-1.1,0.6-2.5,0.9-4.1,0.9
                                c-2,0-3.6-0.6-4.5-1.8c-1-1.2-1.5-2.8-1.5-4.9V25h-10.6v18.4c0,1.1-0.1,1.9-0.3,2.5c-0.2,0.6-0.6,1.1-1.1,1.4
                                c-0.5,0.3-1.1,0.5-2,0.6c-0.8,0.1-1.8,0.1-3,0.1h-3.4c-2.7,0-4.4-0.5-5.2-1.5c-0.8-1-1.2-2.7-1.2-5.1V20.8H303v21.6
                                c0,2.4-0.4,3.9-1.1,4.6c-0.7,0.7-2.1,1-3.9,1h-5.1c0,0,0,0,0,0c0,0,0,0,0,0h-6.1v-2.8c0-3.7-0.3-7-0.8-10c-0.6-3-1.5-5.7-2.7-7.9
                                c-1.3-2.2-2.9-3.9-5-5.1c-2.1-1.2-4.6-1.8-7.7-1.8c-2.7,0-5.1,0.6-7.2,1.8c-2.1,1.2-3.9,2.8-5.3,4.8c-1.4,2-2.5,4.2-3.3,6.7
                                c-0.7,2.5-1.1,5-1.1,7.6c0,3.2,0.4,5.9,1.2,8.2c0.8,2.3,2,4.1,3.5,5.6c1.5,1.4,3.3,2.5,5.3,3.1c2,0.6,4.3,1,6.7,1h5.2
                                c-0.2,1.3-0.6,2.4-1.2,3.4c-0.6,1-1.5,1.9-2.8,2.6c-1.2,0.7-2.8,1.3-4.8,1.7c-1.9,0.4-4.3,0.6-7.2,0.6h-1.9V79h2.6
                                c8.4,0,14.6-1.6,18.8-4.8c4.2-3.2,6.7-8.2,7.4-15.2h6.3c0,0,0,0,0,0c0,0,0,0,0,0h6.8c1.1,0,2.2,0,3.4-0.1c1.1-0.1,2.2-0.3,3.3-0.6
                                c1.1-0.3,2-0.8,3-1.5c0.9-0.7,1.7-1.6,2.4-2.6c1,2,2.2,3.4,3.7,4c1.5,0.6,3,0.9,4.7,0.9c0,0,0,0,0,0h3.2c3.7,0,6.8-0.3,9.1-0.8
                                c2.4-0.5,4.3-1.9,5.8-4.2c0.8,1.2,2.2,2.4,4.1,3.4c1.9,1.1,4.3,1.6,7.1,1.6c0.9,0,1.8,0,2.8-0.1c1-0.1,2-0.3,2.9-0.6
                                c1-0.3,2-0.8,2.9-1.5c0.9-0.7,1.8-1.6,2.7-2.8c1.1,1.7,2.3,3,3.8,3.8c1.5,0.8,3.7,1.2,6.6,1.2H384V20.8H373.2z M275.9,48h-5.5
                                c-1.9,0-3.4-0.6-4.5-1.7c-1.1-1.1-1.7-3.2-1.7-6.3c0-2.4,0.5-4.5,1.4-6.1c0.9-1.6,2.4-2.4,4.4-2.4c2.3,0,3.8,1,4.7,3
                                c0.8,2,1.2,4.6,1.2,7.6V48z" />
				</g>
			</g>
		</symbol>
		<symbol id="sport24" viewBox="0 0 384 82">
			<g id="XMLID_1_">
				<g id="XMLID_13_">
					<g>
						<path id="XMLID_19_" style="fill:#B62025;" d="M0.3,0.3v13.6H50v10.6H13.3c0,0-13.3-1.7-13.3,13.3c0,16.1,0,24.3,0,24.3h61.8V48.5H13.5
                                    V37.9h36.7c0,0,12.2,1.4,11.5-13.4C61.2,9.7,64.1,0.3,49.9,0.3C35.8,0.3,0.3,0.3,0.3,0.3z" />
						<polyline id="XMLID_18_" style="fill:#B62025;" points="130.8,38.4 130.8,62.2 117,62.2 117,38.4 68.8,38.4 68.8,0.3 82.6,0.3 82.6,24.2 
                                    117.1,24.2 117.1,0.3 130.6,0.3 130.6,24.2 			" />
					</g>
				</g>
				<g>
					<path style="fill:#fff;" d="M209.2,48h-35.9c-1.9,0-3.4-0.1-4.7-0.2c-1.2-0.2-2.2-0.5-2.9-0.9c-0.7-0.4-1.2-1.1-1.5-1.8
                                c-0.3-0.8-0.4-1.8-0.4-3V28H153v15.9c0,2.8,0.3,5.1,0.9,7c0.6,1.9,1.5,3.5,2.9,4.7c1.3,1.2,3.1,2.1,5.3,2.6c2.2,0.5,5,0.8,8.2,0.8
                                H220V20.8h-10.8V48z" />
					<path style="fill:#fff;" d="M193.7,16.5c1.6,0,3-0.7,4.2-2c1.2-1.3,1.7-2.9,1.7-4.8c0-1.9-0.6-3.5-1.7-4.8c-1.2-1.3-2.5-2-4.2-2
                                c-1.6,0-3,0.7-4.2,2c-1.2,1.3-1.7,2.9-1.7,4.8c0,1.9,0.6,3.5,1.7,4.8C190.7,15.9,192.1,16.5,193.7,16.5z" />
					<path style="fill:#fff;" d="M180.2,16.5c1.6,0,3-0.7,4.2-2c1.2-1.3,1.7-2.9,1.7-4.8c0-1.9-0.6-3.5-1.7-4.8c-1.2-1.3-2.5-2-4.2-2
                                c-1.6,0-3,0.7-4.2,2c-1.2,1.3-1.7,2.9-1.7,4.8c0,1.9,0.6,3.5,1.7,4.8C177.2,15.9,178.6,16.5,180.2,16.5z" />
					<path style="fill:#fff;" d="M235.7,53.6c0,2.4-0.1,4.4-0.3,6.1c-0.2,1.7-0.6,3.1-1.3,4.2c-0.7,1.1-1.7,1.9-3,2.4
                                c-1.3,0.5-3.1,0.8-5.4,0.9V79c4.2-0.1,7.6-0.5,10.3-1.4c2.7-0.9,4.8-2.4,6.3-4.4c1.5-2,2.6-4.6,3.2-7.8c0.6-3.2,0.9-7.1,0.9-11.7
                                V25h-10.8V53.6z" />
					<path style="fill:#fff;" d="M308.4,68.1c-1.6,0-3,0.7-4.2,2c-1.2,1.3-1.7,2.9-1.7,4.8c0,1.9,0.6,3.5,1.7,4.8c1.2,1.3,2.5,2,4.2,2
                                c1.6,0,3-0.7,4.2-2c1.2-1.3,1.7-2.9,1.7-4.8c0-1.9-0.6-3.5-1.7-4.8C311.4,68.7,310,68.1,308.4,68.1z" />
					<path style="fill:#fff;" d="M373.2,20.8V48H368c-3.3,0-4.9-2.2-4.9-6.6V25h-10.8v18.4c0,1.9-0.6,3.2-1.7,3.8c-1.1,0.6-2.5,0.9-4.1,0.9
                                c-2,0-3.6-0.6-4.5-1.8c-1-1.2-1.5-2.8-1.5-4.9V25h-10.6v18.4c0,1.1-0.1,1.9-0.3,2.5c-0.2,0.6-0.6,1.1-1.1,1.4
                                c-0.5,0.3-1.1,0.5-2,0.6c-0.8,0.1-1.8,0.1-3,0.1h-3.4c-2.7,0-4.4-0.5-5.2-1.5c-0.8-1-1.2-2.7-1.2-5.1V20.8H303v21.6
                                c0,2.4-0.4,3.9-1.1,4.6c-0.7,0.7-2.1,1-3.9,1h-5.1c0,0,0,0,0,0c0,0,0,0,0,0h-6.1v-2.8c0-3.7-0.3-7-0.8-10c-0.6-3-1.5-5.7-2.7-7.9
                                c-1.3-2.2-2.9-3.9-5-5.1c-2.1-1.2-4.6-1.8-7.7-1.8c-2.7,0-5.1,0.6-7.2,1.8c-2.1,1.2-3.9,2.8-5.3,4.8c-1.4,2-2.5,4.2-3.3,6.7
                                c-0.7,2.5-1.1,5-1.1,7.6c0,3.2,0.4,5.9,1.2,8.2c0.8,2.3,2,4.1,3.5,5.6c1.5,1.4,3.3,2.5,5.3,3.1c2,0.6,4.3,1,6.7,1h5.2
                                c-0.2,1.3-0.6,2.4-1.2,3.4c-0.6,1-1.5,1.9-2.8,2.6c-1.2,0.7-2.8,1.3-4.8,1.7c-1.9,0.4-4.3,0.6-7.2,0.6h-1.9V79h2.6
                                c8.4,0,14.6-1.6,18.8-4.8c4.2-3.2,6.7-8.2,7.4-15.2h6.3c0,0,0,0,0,0c0,0,0,0,0,0h6.8c1.1,0,2.2,0,3.4-0.1c1.1-0.1,2.2-0.3,3.3-0.6
                                c1.1-0.3,2-0.8,3-1.5c0.9-0.7,1.7-1.6,2.4-2.6c1,2,2.2,3.4,3.7,4c1.5,0.6,3,0.9,4.7,0.9c0,0,0,0,0,0h3.2c3.7,0,6.8-0.3,9.1-0.8
                                c2.4-0.5,4.3-1.9,5.8-4.2c0.8,1.2,2.2,2.4,4.1,3.4c1.9,1.1,4.3,1.6,7.1,1.6c0.9,0,1.8,0,2.8-0.1c1-0.1,2-0.3,2.9-0.6
                                c1-0.3,2-0.8,2.9-1.5c0.9-0.7,1.8-1.6,2.7-2.8c1.1,1.7,2.3,3,3.8,3.8c1.5,0.8,3.7,1.2,6.6,1.2H384V20.8H373.2z M275.9,48h-5.5
                                c-1.9,0-3.4-0.6-4.5-1.7c-1.1-1.1-1.7-3.2-1.7-6.3c0-2.4,0.5-4.5,1.4-6.1c0.9-1.6,2.4-2.4,4.4-2.4c2.3,0,3.8,1,4.7,3
                                c0.8,2,1.2,4.6,1.2,7.6V48z" />
				</g>
			</g>
		</symbol>
		<symbol id="photo" viewBox="0 0 490 490">
			<g>
				<path d="M0,167.85v216.2c0,33,26.8,59.8,59.8,59.8h370.4c33,0,59.8-26.8,59.8-59.8v-216.2c0-31.4-25.5-56.9-56.9-56.9h-79.6
                                    l-1.9-8.3c-7.7-33.3-37-56.5-71.2-56.5h-70.9c-34.1,0-63.4,23.2-71.2,56.5l-1.9,8.3H56.9C25.5,110.95,0,136.55,0,167.85z
                                     M146.2,135.45c5.7,0,10.6-3.9,11.9-9.5l4.1-17.8c5.2-22.1,24.6-37.5,47.3-37.5h70.9c22.7,0,42.1,15.4,47.3,37.5l4.1,17.8
                                    c1.3,5.5,6.2,9.5,11.9,9.5H433c17.9,0,32.4,14.5,32.4,32.4v216.2c0,19.5-15.8,35.3-35.3,35.3H59.8c-19.5,0-35.3-15.8-35.3-35.3
                                    v-216.2c0-17.9,14.5-32.4,32.4-32.4H146.2z" />
				<circle cx="82.9" cy="187.75" r="16.4" />
				<path d="M245,380.95c56.7,0,102.9-46.2,102.9-102.9s-46.2-102.9-102.9-102.9s-102.9,46.1-102.9,102.9S188.3,380.95,245,380.95z
                                     M245,199.65c43.2,0,78.4,35.2,78.4,78.4s-35.2,78.4-78.4,78.4s-78.4-35.2-78.4-78.4S201.8,199.65,245,199.65z" />
			</g>
		</symbol>
		<symbol id="video" viewBox="0 0 191.255 191.255">
			<path d="M162.929,66.612c-2.814-1.754-6.514-0.896-8.267,1.917s-0.895,6.513,1.917,8.266c6.544,4.081,10.45,11.121,10.45,18.833
                        s-3.906,14.752-10.45,18.833l-98.417,61.365c-6.943,4.329-15.359,4.542-22.512,0.573c-7.154-3.97-11.425-11.225-11.425-19.406
                        V34.262c0-8.181,4.271-15.436,11.425-19.406c7.153-3.969,15.569-3.756,22.512,0.573l57.292,35.723
                        c2.813,1.752,6.513,0.895,8.267-1.917c1.753-2.812,0.895-6.513-1.917-8.266L64.512,5.247c-10.696-6.669-23.661-7-34.685-0.883
                        C18.806,10.48,12.226,21.657,12.226,34.262v122.73c0,12.605,6.58,23.782,17.602,29.898c5.25,2.913,10.939,4.364,16.616,4.364
                        c6.241,0,12.467-1.754,18.068-5.247l98.417-61.365c10.082-6.287,16.101-17.133,16.101-29.015S173.011,72.899,162.929,66.612z" />
		</symbol>
		<symbol id="time" viewBox="0 0 97.16 97.16">
			<g>
				<path d="M48.58,0C21.793,0,0,21.793,0,48.58s21.793,48.58,48.58,48.58s48.58-21.793,48.58-48.58S75.367,0,48.58,0z M48.58,86.823
                                    c-21.087,0-38.244-17.155-38.244-38.243S27.493,10.337,48.58,10.337S86.824,27.492,86.824,48.58S69.667,86.823,48.58,86.823z" />
				<path d="M73.898,47.08H52.066V20.83c0-2.209-1.791-4-4-4c-2.209,0-4,1.791-4,4v30.25c0,2.209,1.791,4,4,4h25.832
                                    c2.209,0,4-1.791,4-4S76.107,47.08,73.898,47.08z" />
			</g>
		</symbol>
		<symbol id="arrow-down" viewBox="0 0 129 129">
			<path d="m121.3,34.6c-1.6-1.6-4.2-1.6-5.8,0l-51,51.1-51.1-51.1c-1.6-1.6-4.2-1.6-5.8,0-1.6,1.6-1.6,4.2 0,5.8l53.9,53.9c0.8,0.8 1.8,1.2 2.9,1.2 1,0 2.1-0.4 2.9-1.2l53.9-53.9c1.7-1.6 1.7-4.2 0.1-5.8z" />
		</symbol>
		<symbol id="arrow-right" viewBox="0 0 477.175 477.175">
			<path d="M145.188,238.575l215.5-215.5c5.3-5.3,5.3-13.8,0-19.1s-13.8-5.3-19.1,0l-225.1,225.1c-5.3,5.3-5.3,13.8,0,19.1l225.1,225
                                c2.6,2.6,6.1,4,9.5,4s6.9-1.3,9.5-4c5.3-5.3,5.3-13.8,0-19.1L145.188,238.575z" />
		</symbol>
		<symbol id="snap" viewBox="0 0 512 512">
			<path d="m483.738281 0h-455.5c-15.597656.0078125-28.24218725 12.660156-28.238281 28.261719v455.5c.0078125 15.597656 12.660156 28.242187 28.261719 28.238281h455.476562c15.605469.003906 28.257813-12.644531 28.261719-28.25 0-.003906 0-.007812 0-.011719v-455.5c-.007812-15.597656-12.660156-28.24218725-28.261719-28.238281zm0 0" fill="#fffc01" />
			<path d="m258.898438 471.539062c-1.183594 0-2.34375-.035156-3.511719-.09375-.746094.066407-1.519531.09375-2.292969.09375-27.207031 0-44.667969-12.339843-61.558594-24.285156-11.660156-8.238281-22.667968-16.019531-35.628906-18.175781-6.324219-1.050781-12.628906-1.574219-18.703125-1.574219-10.972656 0-19.613281 1.691406-25.933594 2.921875-3.832031.757813-7.144531 1.398438-9.660156 1.398438-2.632813 0-5.472656-.566407-6.714844-4.796875-1.074219-3.667969-1.847656-7.207032-2.601562-10.648438-1.929688-8.828125-3.296875-14.261718-6.996094-14.828125-43.152344-6.664062-55.511719-15.761719-58.261719-22.207031-.382812-.917969-.617187-1.847656-.660156-2.757812-.140625-2.484376 1.609375-4.671876 4.066406-5.066407 66.332032-10.921875 96.078125-78.726562 97.320313-81.605469.027343-.074218.066406-.15625.101562-.230468 4.0625-8.230469 4.855469-15.375 2.371094-21.234375-4.546875-10.71875-19.398437-15.433594-29.230469-18.550781-2.398437-.765626-4.679687-1.484376-6.480468-2.199219-19.613282-7.753907-21.242188-15.703125-20.46875-19.761719 1.316406-6.914062 10.546874-11.730469 18.019531-11.730469 2.042969 0 3.84375.367188 5.363281 1.078125 8.828125 4.128906 16.769531 6.222656 23.640625 6.222656 9.480469 0 13.621094-3.980468 14.121094-4.507812-.246094-4.488281-.539063-9.175781-.847657-14.019531-1.972656-31.355469-4.429687-70.332031 5.5-92.574219 29.738282-66.675781 92.796876-71.859375 111.417969-71.859375.476563 0 8.164063-.082031 8.164063-.082031h1.101562c18.65625 0 81.859375 5.1875 111.617188 71.90625 9.921875 22.25 7.464844 61.257812 5.488281 92.589844l-.082031 1.371093c-.277344 4.355469-.542969 8.597657-.765625 12.660157.476562.484374 4.285156 4.148437 12.871093 4.480468h.007813c6.539063-.25 14.039063-2.335937 22.277344-6.1875 2.410156-1.132812 5.097656-1.371094 6.914062-1.371094 2.800781 0 5.617188.542969 7.964844 1.519532l.148437.0625c6.65625 2.367187 11.023438 7.023437 11.121094 11.90625.089844 4.597656-3.425781 11.503906-20.625 18.300781-1.785156.707031-4.066406 1.425781-6.484375 2.199219-9.835937 3.117187-24.679687 7.832031-29.230469 18.554687-2.480468 5.855469-1.691406 12.992188 2.375 21.222657.035157.082031.074219.15625.109376.238281 1.230468 2.878906 30.945312 70.667969 97.320312 81.597656 2.445312.40625 4.199219 2.589844 4.0625 5.066406-.054688.925781-.28125 1.863281-.679688 2.773438-2.742187 6.398437-15.078124 15.484375-58.238281 22.152343-3.53125.539063-4.902343 5.140626-7.007812 14.777344-.765625 3.503906-1.535157 6.949219-2.601563 10.570313-.917968 3.148437-2.875 4.617187-6.179687 4.617187h-.53125c-2.289063 0-5.535157-.414062-9.65625-1.222656-7.3125-1.425781-15.503907-2.742188-25.929688-2.742188-6.089843 0-12.386719.523438-18.71875 1.574219-12.949219 2.160157-23.945312 9.921875-35.585937 18.152344-16.921875 11.964844-34.382813 24.304687-61.597656 24.304687" fill="#fff" />
			<path d="m260.53125 45.320312c17.664062 0 78.507812 4.746094 107.179688 69.023438 9.445312 21.160156 7.023437 59.503906 5.082031 90.304688-.316407 4.890624-.605469 9.625-.847657 14.152343l-.109374 1.9375 1.308593 1.453125c.515625.582032 5.421875 5.707032 16.335938 6.132813l.183593.007812.175782-.007812c7.214844-.277344 15.34375-2.511719 24.183594-6.648438 1.289062-.609375 3.023437-.902343 4.855468-.902343 2.085938 0 4.304688.386718 6.128906 1.160156l.277344.109375c4.625 1.617187 7.898438 4.679687 7.953125 7.445312.027344 1.574219-1.148437 7.199219-17.550781 13.679688-1.609375.636719-3.722656 1.308593-6.171875 2.078125-10.679687 3.390625-26.804687 8.503906-32.238281 21.285156-3.050782 7.214844-2.226563 15.722656 2.492187 25.285156 1.941407 4.511719 32.402344 73.171875 100.996094 84.476563-.015625.320312-.101563.679687-.285156 1.097656-1.15625 2.742187-8.550781 12.195313-54.527344 19.285156-7.199219 1.113281-8.957031 9.179688-11.003906 18.554688-.726563 3.347656-1.492188 6.730469-2.519531 10.234375-.3125 1.058594-.367188 1.125-1.507813 1.125h-.542969c-2.03125 0-5.136718-.425782-8.726562-1.125-6.519532-1.277344-15.445313-2.839844-26.859375-2.839844-6.363281 0-12.925781.558594-19.507813 1.648438-14.070312 2.339843-25.515625 10.4375-37.636718 18.992187-16.265626 11.515625-33.09375 23.402344-58.753907 23.402344-1.113281 0-2.207031-.035157-3.308593-.09375l-.285157.007812-.292969.015625c-.625.058594-1.261718.082032-1.914062.082032-25.664062 0-42.492188-11.886719-58.753906-23.390626-12.121094-8.570312-23.566406-16.660156-37.628906-19.007812-6.582032-1.085938-13.144532-1.648438-19.507813-1.648438-11.414063 0-20.34375 1.738282-26.867187 3.015626-3.585938.707031-6.683594 1.308593-8.722657 1.308593-1.660156 0-1.691406-.09375-2.042969-1.300781-1.03125-3.503906-1.792968-6.976562-2.515624-10.328125-2.050782-9.378906-3.824219-17.484375-11.007813-18.601563-45.984375-7.097656-53.363281-16.566406-54.535156-19.300781-.183594-.421875-.257813-.796875-.277344-1.121093 68.585937-11.304688 99.058594-79.953126 100.996094-84.484376 4.707031-9.5625 5.546875-18.058593 2.484375-25.277343-5.425782-12.789063-21.550782-17.902344-32.238282-21.292969-2.449218-.773438-4.558593-1.441406-6.164062-2.074219-13.867188-5.484375-18.125-10.988281-17.476562-14.335937.726562-3.851563 7.414062-7.773438 13.238281-7.773438 1.308593 0 2.457031.203125 3.300781.609375 9.472656 4.429688 18.125 6.683594 25.699219 6.683594 11.917969 0 17.234375-5.546875 17.792969-6.183594l1.296874-1.441406-.109374-1.929687c-.238282-4.523438-.539063-9.25-.847657-14.136719-1.941406-30.8125-4.355469-69.125 5.082031-90.292969 28.558594-64.042969 89.101563-68.980469 106.976563-68.980469.441406 0 8.214844-.074219 8.214844-.074219zm0-9.71875h-1.164062s-7.515626.074219-8.113282.074219c-19.34375 0-84.917968 5.398438-115.847656 74.75-10.40625 23.332031-7.917969 62.964844-5.914062 94.808594.238281 3.75.488281 7.648437.699218 11.417969-1.601562.882812-4.523437 1.984375-9.121094 1.984375-6.140624 0-13.398437-1.929688-21.574218-5.765625-2.167969-1.007813-4.671875-1.523438-7.429688-1.523438-9.570312 0-21.019531 6.296875-22.792968 15.675782-1.289063 6.757812 1.738281 16.617187 23.457031 25.195312 1.957031.78125 4.3125 1.523438 6.804687 2.304688 8.972656 2.851562 22.535156 7.15625 26.222656 15.828124 1.902344 4.496094 1.140626 10.277344-2.261718 17.175782-.074219.15625-.148438.316406-.210938.476562-1.195312 2.773438-29.902344 68.21875-93.640625 78.710938-4.898437.808594-8.40625 5.1875-8.128906 10.140625.082031 1.480469.433594 2.941406 1.03125 4.367187 4.789063 11.179688 24.964844 19.382813 61.707031 25.082032 1.234375 1.65625 2.511719 7.523437 3.292969 11.097656.765625 3.53125 1.554687 7.164062 2.683594 11.003906 1.101562 3.773438 3.980469 8.273438 11.371093 8.273438 2.992188 0 6.523438-.691407 10.59375-1.488282 6.125-1.199218 14.511719-2.832031 25.003907-2.832031 5.820312 0 11.851562.503906 17.917969 1.507813 11.851562 1.972656 21.933593 9.101562 33.589843 17.339843 16.707031 11.816407 35.628907 25.183594 64.382813 25.183594.789062 0 1.582031-.015625 2.371094-.082031.929687.046875 2.144531.082031 3.433593.082031 28.761719 0 47.683594-13.367187 64.375-25.171875 11.6875-8.257812 21.757813-15.378906 33.605469-17.351562 6.070312-1.003907 12.101562-1.507813 17.917969-1.507813 10.015625 0 17.929687 1.265625 24.992187 2.648437 4.433594.871094 7.992188 1.3125 10.59375 1.3125h.542969c5.464844 0 9.316406-2.886718 10.839844-8.117187 1.113281-3.761719 1.902343-7.300781 2.683593-10.890625.78125-3.566406 2.050782-9.402344 3.273438-11.058594 36.757812-5.695312 56.933594-13.878906 61.714844-25.015625.605468-1.425781.964844-2.90625 1.046875-4.394531.277343-4.96875-3.222657-9.324219-8.128907-10.132812-63.765624-10.507813-92.457031-75.941407-93.640624-78.714844-.066407-.160156-.140626-.316406-.21875-.46875-3.398438-6.90625-4.15625-12.679688-2.25-17.175782 3.679687-8.671874 17.242187-12.972656 26.214843-15.816406 2.507813-.800781 4.863281-1.558594 6.804688-2.316406 15.894531-6.28125 23.867187-13.988281 23.707031-22.917969-.140625-7.015625-5.597656-13.269531-14.28125-16.367187l-.023438-.007813c-2.917968-1.214843-6.382812-1.875-9.773437-1.875-2.324219 0-5.765625.3125-8.980469 1.820313-7.558594 3.542968-14.355468 5.472656-20.210937 5.730468-3.890625-.175781-6.429688-1.15625-7.878907-1.957031.183594-3.226562.390626-6.554687.605469-10.03125l.082031-1.351562c2.015626-31.859375 4.507813-71.523438-5.902343-94.871094-30.960938-69.390625-96.671875-74.789063-116.074219-74.789063" fill="#030303" />
		</symbol>
		<symbol id="facebook" viewBox="0 0 408.788 408.788">
			<path style="fill:#475993;" d="M353.701,0H55.087C24.665,0,0.002,24.662,0.002,55.085v298.616c0,30.423,24.662,55.085,55.085,55.085
                        h147.275l0.251-146.078h-37.951c-4.932,0-8.935-3.988-8.954-8.92l-0.182-47.087c-0.019-4.959,3.996-8.989,8.955-8.989h37.882
                        v-45.498c0-52.8,32.247-81.55,79.348-81.55h38.65c4.945,0,8.955,4.009,8.955,8.955v39.704c0,4.944-4.007,8.952-8.95,8.955
                        l-23.719,0.011c-25.615,0-30.575,12.172-30.575,30.035v39.389h56.285c5.363,0,9.524,4.683,8.892,10.009l-5.581,47.087
                        c-0.534,4.506-4.355,7.901-8.892,7.901h-50.453l-0.251,146.078h87.631c30.422,0,55.084-24.662,55.084-55.084V55.085
                        C408.786,24.662,384.124,0,353.701,0z" />
		</symbol>
		<symbol id="linkedin" viewBox="0 0 430.117 430.117">
			<g>
				<path id="LinkedIn" d="M430.117,261.543V420.56h-92.188V272.193c0-37.271-13.334-62.707-46.703-62.707
                        c-25.473,0-40.632,17.142-47.301,33.724c-2.432,5.928-3.058,14.179-3.058,22.477V420.56h-92.219c0,0,1.242-251.285,0-277.32h92.21
                        v39.309c-0.187,0.294-0.43,0.611-0.606,0.896h0.606v-0.896c12.251-18.869,34.13-45.824,83.102-45.824
                        C384.633,136.724,430.117,176.361,430.117,261.543z M52.183,9.558C20.635,9.558,0,30.251,0,57.463
                        c0,26.619,20.038,47.94,50.959,47.94h0.616c32.159,0,52.159-21.317,52.159-47.94C103.128,30.251,83.734,9.558,52.183,9.558z
                         M5.477,420.56h92.184v-277.32H5.477V420.56z" />
			</g>
		</symbol>
		<symbol id="twitter" viewBox="0 0 612 612">
			<g>
				<path d="M612,116.258c-22.525,9.981-46.694,16.75-72.088,19.772c25.929-15.527,45.777-40.155,55.184-69.411
                            c-24.322,14.379-51.169,24.82-79.775,30.48c-22.907-24.437-55.49-39.658-91.63-39.658c-69.334,0-125.551,56.217-125.551,125.513
                            c0,9.828,1.109,19.427,3.251,28.606C197.065,206.32,104.556,156.337,42.641,80.386c-10.823,18.51-16.98,40.078-16.98,63.101
                            c0,43.559,22.181,81.993,55.835,104.479c-20.575-0.688-39.926-6.348-56.867-15.756v1.568c0,60.806,43.291,111.554,100.693,123.104
                            c-10.517,2.83-21.607,4.398-33.08,4.398c-8.107,0-15.947-0.803-23.634-2.333c15.985,49.907,62.336,86.199,117.253,87.194
                            c-42.947,33.654-97.099,53.655-155.916,53.655c-10.134,0-20.116-0.612-29.944-1.721c55.567,35.681,121.536,56.485,192.438,56.485
                            c230.948,0,357.188-191.291,357.188-357.188l-0.421-16.253C573.872,163.526,595.211,141.422,612,116.258z" />
			</g>
		</symbol>
		<symbol id="instagram" viewBox="0 0 512 512">
			<radialGradient id="a" cx="104.9571229418" cy="447.4474330468" gradientUnits="userSpaceOnUse" r="564.64588968">
				<stop offset="0" stop-color="#fae100" />
				<stop offset=".0544" stop-color="#fadc04" />
				<stop offset=".1167" stop-color="#fbce0e" />
				<stop offset=".1829" stop-color="#fcb720" />
				<stop offset=".2514" stop-color="#fe9838" />
				<stop offset=".3054" stop-color="#ff7950" />
				<stop offset=".4922" stop-color="#ff1c74" />
				<stop offset="1" stop-color="#6c1cd1" />
			</radialGradient>
			<linearGradient id="b" gradientUnits="userSpaceOnUse" x1="196.3726539866" x2="-671.0159540134" y1="222.4596783332" y2="-265.4464136668">
				<stop offset="0" stop-color="#a1b5d8" stop-opacity="0" />
				<stop offset=".3094" stop-color="#90a2bd" stop-opacity=".309804" />
				<stop offset=".7554" stop-color="#7c8b9c" stop-opacity=".756863" />
				<stop offset="1" stop-color="#748290" />
			</linearGradient>
			<linearGradient id="c" gradientUnits="userSpaceOnUse" x1="256.0003" x2="256.0003" y1="451.9660859688" y2="531.773969673">
				<stop offset="0" stop-color="#fae100" stop-opacity="0" />
				<stop offset=".3068" stop-color="#fca800" stop-opacity=".305882" />
				<stop offset=".6275" stop-color="#fe7300" stop-opacity=".627451" />
				<stop offset=".8685" stop-color="#ff5200" stop-opacity=".866667" />
				<stop offset="1" stop-color="#ff4500" />
			</linearGradient>
			<linearGradient id="d">
				<stop offset="0" stop-color="#833ab4" stop-opacity="0" />
				<stop offset="1" stop-color="#833ab4" />
			</linearGradient>
			<linearGradient id="e" gradientUnits="userSpaceOnUse" x1="226.8724066998" x2="100.1606848024" xlink:href="#d" y1="226.147987369" y2="99.4361650794" />
			<linearGradient id="f" gradientUnits="userSpaceOnUse" x1="350.899540777" x2="287.6555669352" xlink:href="#d" y1="468.287448276" y2="170.1375727138" />
			<linearGradient id="g" gradientUnits="userSpaceOnUse" x1="374.965057" x2="120.9410670648" xlink:href="#d" y1="374.9649673922" y2="120.9408770648" />
			<linearGradient id="h" gradientUnits="userSpaceOnUse" x1="393.806665096" x2="309.8058007666" xlink:href="#d" y1="221.2631037014" y2="137.2623397642" />
			<linearGradient id="i" gradientUnits="userSpaceOnUse" x1="357.6582448576" x2="150.5426107646" y1="155.0495285836" y2="362.1651626766">
				<stop offset="0" stop-color="#833ab4" />
				<stop offset=".0922" stop-color="#9c3495" />
				<stop offset=".2927" stop-color="#dc2546" />
				<stop offset=".392" stop-color="#fd1d1d" />
				<stop offset=".5589" stop-color="#fc6831" />
				<stop offset=".6887" stop-color="#fc9b40" />
				<stop offset=".7521" stop-color="#fcaf45" />
				<stop offset=".7806" stop-color="#fdb750" />
				<stop offset=".8656" stop-color="#fecb6a" />
				<stop offset=".9415" stop-color="#ffd87a" />
				<stop offset="1" stop-color="#ffdc80" />
			</linearGradient>
			<path d="m503.234375 91.578125c-4.660156-43.664063-39.144531-78.15625-82.8125-82.8125-109.507813-11.6875-219.335937-11.6875-328.839844 0-43.667969 4.660156-78.15625 39.148437-82.816406 82.8125-11.6875 109.503906-11.6875 219.335937 0 328.839844 4.660156 43.667969 39.148437 78.15625 82.8125 82.816406 109.503906 11.6875 219.335937 11.6875 328.84375 0 43.667969-4.660156 78.152344-39.148437 82.8125-82.816406 11.6875-109.503907 11.6875-219.332031 0-328.839844zm0 0" fill="url(#a)" />
			<path d="m475.386719 110.097656c-4.132813-38.746094-34.734375-69.351562-73.484375-73.488281-97.171875-10.367187-194.632813-10.367187-291.804688 0-38.746094 4.136719-69.351562 34.742187-73.488281 73.488281-10.367187 97.171875-10.367187 194.632813 0 291.800782 4.136719 38.75 34.742187 69.355468 73.488281 73.488281 97.171875 10.371093 194.632813 10.371093 291.800782 0 38.75-4.132813 69.355468-34.738281 73.488281-73.488281 10.371093-97.167969 10.371093-194.628907 0-291.800782zm0 0" fill="url(#b)" />
			<path d="m7.671875 409.804688c.351563 3.539062.714844 7.078124 1.09375 10.617187 4.660156 43.664063 39.148437 78.152344 82.816406 82.8125 109.503907 11.6875 219.335938 11.6875 328.839844 0 43.667969-4.660156 78.152344-39.148437 82.8125-82.8125.378906-3.539063.742187-7.078125 1.097656-10.617187zm0 0" fill="url(#c)" />
			<path d="m503.234375 420.417969c6.28125-58.839844 9.179687-117.773438 8.710937-176.699219l-117.03125-117.03125c-14.621093-16.691406-35.976562-27.109375-61.070312-28.011719-51.605469-1.859375-103.375-1.765625-154.988281.007813-42.867188 1.476562-72.84375 30.289062-80.53125 72.636718-1.355469 7.476563-2.167969 15.050782-3.234375 22.582032v124.148437c.589844 4.023438 1.457031 8.027344 1.726562 12.074219 1.71875 25.757812 12.304688 47.820312 29.253906 62.746094l119.09375 119.089844c58.445313.410156 116.894532-2.496094 175.257813-8.726563 43.667969-4.660156 78.152344-39.148437 82.8125-82.816406zm0 0" fill="url(#e)" />
			<path d="m503.234375 420.421875c-4.65625 43.660156-39.152344 78.15625-82.8125 82.8125-58.355469 6.226563-116.816406 9.136719-175.253906 8.726563l-118.914063-118.914063c13.785156 12.066406 31.753906 19.414063 52.605469 20.199219 51.601563 1.9375 103.382813 1.886718 154.984375.027344 46.671875-1.6875 80.445312-36.230469 81.902344-82.902344 1.554687-49.554688 1.554687-99.238282 0-148.792969-.664063-21.53125-8.222656-40.476563-20.753906-54.8125l116.957031 116.957031c.460937 58.917969-2.4375 117.859375-8.714844 176.699219zm0 0" fill="url(#f)" />
			<path d="m316.414062 200.558594c-14.992187-16.324219-36.503906-26.566406-60.414062-26.566406-45.289062 0-82.007812 36.71875-82.007812 82.007812 0 23.910156 10.242187 45.421875 26.566406 60.414062l189.738281 189.738282c10.042969-.875 20.085937-1.847656 30.121094-2.917969 43.667969-4.660156 78.15625-39.148437 82.816406-82.816406 1.070313-10.035157 2.042969-20.078125 2.917969-30.121094zm0 0" fill="url(#g)" />
			<path d="m511.007812 311.152344-152.703124-152.699219c-3.5625-4.675781-9.175782-7.710937-15.507813-7.710937-10.773437 0-19.511719 8.734374-19.511719 19.511718 0 6.332032 3.035156 11.945313 7.710938 15.507813l177.28125 177.285156c1.203125-17.292969 2.113281-34.59375 2.730468-51.894531zm0 0" fill="url(#h)" />
			<path d="m95.089844 193.902344c1.066406-7.53125 1.878906-15.105469 3.234375-22.582032 7.683593-42.347656 37.664062-71.160156 80.53125-72.636718 51.613281-1.773438 103.382812-1.867188 154.988281-.007813 46.65625 1.679688 80.445312 36.226563 81.902344 82.898438 1.550781 49.558593 1.550781 99.238281 0 148.796875-1.457032 46.671875-35.234375 81.214844-81.898438 82.898437-51.605468 1.863281-103.386718 1.910157-154.988281-.027343-46.664063-1.753907-78.921875-36.378907-82.042969-83.121094-.269531-4.042969-1.136718-8.050782-1.726562-12.074219 0-41.382813 0-82.765625 0-124.144531zm160.953125 191.707031c23.617187 0 47.257812.707031 70.84375-.164063 36.980469-1.371093 59.726562-23.441406 60.589843-60.386718 1.070313-46.035156 1.070313-92.132813 0-138.171875-.863281-36.9375-23.625-59.523438-60.589843-60.308594-46.917969-.992187-93.886719-.984375-140.804688 0-36.683593.769531-59.496093 22.898437-60.492187 59.429687-1.265625 46.617188-1.265625 93.316407 0 139.933594.996094 36.527344 23.808594 58.144532 60.496094 59.503906 23.289062.867188 46.636718.164063 69.957031.164063zm0 0" fill="url(#i)" />
			<g fill="#fff">
				<path d="m95.089844 193.902344c1.066406-7.53125 1.878906-15.105469 3.234375-22.582032 7.683593-42.347656 37.664062-71.160156 80.53125-72.636718 51.613281-1.773438 103.382812-1.867188 154.988281-.007813 46.65625 1.679688 80.445312 36.226563 81.902344 82.898438 1.550781 49.558593 1.550781 99.238281 0 148.796875-1.457032 46.671875-35.234375 81.214844-81.898438 82.898437-51.605468 1.863281-103.386718 1.910157-154.988281-.027343-46.664063-1.753907-78.921875-36.378907-82.042969-83.121094-.269531-4.042969-1.136718-8.050782-1.726562-12.074219 0-41.382813 0-82.765625 0-124.144531zm160.953125 191.707031c23.617187 0 47.257812.707031 70.84375-.164063 36.980469-1.371093 59.726562-23.441406 60.589843-60.386718 1.070313-46.035156 1.070313-92.132813 0-138.171875-.863281-36.9375-23.625-59.523438-60.589843-60.308594-46.917969-.992187-93.886719-.984375-140.804688 0-36.683593.769531-59.496093 22.898437-60.492187 59.429687-1.265625 46.617188-1.265625 93.316407 0 139.933594.996094 36.527344 23.808594 58.144532 60.496094 59.503906 23.289062.867188 46.636718.164063 69.957031.164063zm0 0" />
				<path d="m256 173.996094c-45.289062 0-82.007812 36.714844-82.007812 82.003906 0 45.292969 36.71875 82.007812 82.007812 82.007812 45.292969 0 82.007812-36.714843 82.007812-82.007812 0-45.289062-36.714843-82.003906-82.007812-82.003906zm0 135.777344c-29.699219 0-53.773438-24.074219-53.773438-53.773438s24.074219-53.773438 53.773438-53.773438 53.773438 24.074219 53.773438 53.773438-24.074219 53.773438-53.773438 53.773438zm0 0" />
				<path d="m362.304688 170.253906c0 10.773438-8.734376 19.507813-19.507813 19.507813s-19.511719-8.734375-19.511719-19.507813c0-10.777344 8.738282-19.511718 19.511719-19.511718s19.507813 8.734374 19.507813 19.511718zm0 0" />
			</g>
		</symbol>
		<symbol id="youtube" viewBox="0 0 461.001 461.001">
			<path style="fill:#F61C0D;" d="M365.257,67.393H95.744C42.866,67.393,0,110.259,0,163.137v134.728
                        c0,52.878,42.866,95.744,95.744,95.744h269.513c52.878,0,95.744-42.866,95.744-95.744V163.137
                        C461.001,110.259,418.135,67.393,365.257,67.393z M300.506,237.056l-126.06,60.123c-3.359,1.602-7.239-0.847-7.239-4.568V168.607
                        c0-3.774,3.982-6.22,7.348-4.514l126.06,63.881C304.363,229.873,304.298,235.248,300.506,237.056z" />
		</symbol>
		<symbol id="right" viewBox="0 0 492.004 492.004">
			<g>
				<g>
					<path d="M484.14,226.886L306.46,49.202c-5.072-5.072-11.832-7.856-19.04-7.856c-7.216,0-13.972,2.788-19.044,7.856l-16.132,16.136
                            c-5.068,5.064-7.86,11.828-7.86,19.04c0,7.208,2.792,14.2,7.86,19.264L355.9,207.526H26.58C11.732,207.526,0,219.15,0,234.002
                            v22.812c0,14.852,11.732,27.648,26.58,27.648h330.496L252.248,388.926c-5.068,5.072-7.86,11.652-7.86,18.864
                            c0,7.204,2.792,13.88,7.86,18.948l16.132,16.084c5.072,5.072,11.828,7.836,19.044,7.836c7.208,0,13.968-2.8,19.04-7.872
                            l177.68-177.68c5.084-5.088,7.88-11.88,7.86-19.1C492.02,238.762,489.228,231.966,484.14,226.886z" />
				</g>
			</g>
		</symbol>
		<symbol id="left" viewBox="0 0 492 492">
			<g>
				<g>
					<path d="M464.344,207.418l0.768,0.168H135.888l103.496-103.724c5.068-5.064,7.848-11.924,7.848-19.124
                            c0-7.2-2.78-14.012-7.848-19.088L223.28,49.538c-5.064-5.064-11.812-7.864-19.008-7.864c-7.2,0-13.952,2.78-19.016,7.844
                            L7.844,226.914C2.76,231.998-0.02,238.77,0,245.974c-0.02,7.244,2.76,14.02,7.844,19.096l177.412,177.412
                            c5.064,5.06,11.812,7.844,19.016,7.844c7.196,0,13.944-2.788,19.008-7.844l16.104-16.112c5.068-5.056,7.848-11.808,7.848-19.008
                            c0-7.196-2.78-13.592-7.848-18.652L134.72,284.406h329.992c14.828,0,27.288-12.78,27.288-27.6v-22.788
                            C492,219.198,479.172,207.418,464.344,207.418z" />
				</g>
			</g>
		</symbol>
		<symbol id="top" viewBox="0 0 612.002 612.002">
			<g>
				<g>
					<path d="M592.639,358.376L423.706,189.439c-64.904-64.892-170.509-64.892-235.421,0.005L19.363,358.379
                            c-25.817,25.817-25.817,67.674,0,93.489c25.817,25.817,67.679,25.819,93.491-0.002l168.92-168.927
                            c13.354-13.357,35.092-13.361,48.444-0.005l168.93,168.932c12.91,12.907,29.825,19.365,46.747,19.365
                            c16.915,0,33.835-6.455,46.747-19.365C618.456,426.051,618.456,384.193,592.639,358.376z" />
				</g>
			</g>
		</symbol>
		<symbol id="play" viewBox="0 0 314.068 314.068">
			<g>
				<g id="_x33_56._Play">
					<g>
						<path d="M293.002,78.53C249.646,3.435,153.618-22.296,78.529,21.068C3.434,64.418-22.298,160.442,21.066,235.534
                                c43.35,75.095,139.375,100.83,214.465,57.47C310.627,249.639,336.371,153.62,293.002,78.53z M219.834,265.801
                                c-60.067,34.692-136.894,14.106-171.576-45.973C13.568,159.761,34.161,82.935,94.23,48.26
                                c60.071-34.69,136.894-14.106,171.578,45.971C300.493,154.307,279.906,231.117,219.834,265.801z M213.555,150.652l-82.214-47.949
                                c-7.492-4.374-13.535-0.877-13.493,7.789l0.421,95.174c0.038,8.664,6.155,12.191,13.669,7.851l81.585-47.103
                                C221.029,162.082,221.045,155.026,213.555,150.652z" />
					</g>
				</g>
			</g>
		</symbol>
		<symbol id="email" viewBox="0 0 511.626 511.626">
			<g>
				<g>
					<path d="M49.106,178.729c6.472,4.567,25.981,18.131,58.528,40.685c32.548,22.554,57.482,39.92,74.803,52.099
                            c1.903,1.335,5.946,4.237,12.131,8.71c6.186,4.476,11.326,8.093,15.416,10.852c4.093,2.758,9.041,5.852,14.849,9.277
                            c5.806,3.422,11.279,5.996,16.418,7.7c5.14,1.718,9.898,2.569,14.275,2.569h0.287h0.288c4.377,0,9.137-0.852,14.277-2.569
                            c5.137-1.704,10.615-4.281,16.416-7.7c5.804-3.429,10.752-6.52,14.845-9.277c4.093-2.759,9.229-6.376,15.417-10.852
                            c6.184-4.477,10.232-7.375,12.135-8.71c17.508-12.179,62.051-43.11,133.615-92.79c13.894-9.703,25.502-21.411,34.827-35.116
                            c9.332-13.699,13.993-28.07,13.993-43.105c0-12.564-4.523-23.319-13.565-32.264c-9.041-8.947-19.749-13.418-32.117-13.418H45.679
                            c-14.655,0-25.933,4.948-33.832,14.844C3.949,79.562,0,91.934,0,106.779c0,11.991,5.236,24.985,15.703,38.974
                            C26.169,159.743,37.307,170.736,49.106,178.729z" />
					<path d="M483.072,209.275c-62.424,42.251-109.824,75.087-142.177,98.501c-10.849,7.991-19.65,14.229-26.409,18.699
                            c-6.759,4.473-15.748,9.041-26.98,13.702c-11.228,4.668-21.692,6.995-31.401,6.995h-0.291h-0.287
                            c-9.707,0-20.177-2.327-31.405-6.995c-11.228-4.661-20.223-9.229-26.98-13.702c-6.755-4.47-15.559-10.708-26.407-18.699
                            c-25.697-18.842-72.995-51.68-141.896-98.501C17.987,202.047,8.375,193.762,0,184.437v226.685c0,12.57,4.471,23.319,13.418,32.265
                            c8.945,8.949,19.701,13.422,32.264,13.422h420.266c12.56,0,23.315-4.473,32.261-13.422c8.949-8.949,13.418-19.694,13.418-32.265
                            V184.437C503.441,193.569,493.927,201.854,483.072,209.275z" />
				</g>
			</g>
		</symbol>
		<symbol id="akhbaar24" viewBox="0 0 390 112">
			<g>
				<path style="fill:#2D639D;" d="M149.8,111.9v-7.1c0-0.7,0-1.5,0.1-2.5h-0.1c-0.2,0.7-0.3,1.2-0.4,1.5l-2.9,8h-2l-2.9-8
		c-0.1-0.2-0.2-0.7-0.4-1.6h-0.1c0.1,1,0.1,2,0.1,2.9v6.6h-2.2v-11.6h3.6l2.5,7c0.2,0.6,0.4,1.1,0.4,1.6h0.1
		c0.2-0.6,0.3-1.2,0.5-1.7l2.5-7h3.5v11.6H149.8z M132.9,103.3c-0.5-0.7-1.3-1.1-2.2-1.1c-1,0-1.7,0.4-2.3,1.1
		c-0.6,0.7-0.8,1.7-0.8,2.8c0,1.1,0.3,2.1,0.8,2.8c0.5,0.7,1.3,1.1,2.3,1.1c1,0,1.7-0.3,2.3-1c0.5-0.7,0.8-1.6,0.8-2.8
		C133.7,104.9,133.4,104,132.9,103.3z M134.7,110.4c-1.1,1.1-2.4,1.7-4.1,1.7c-1.7,0-3-0.5-4.1-1.6c-1-1.1-1.6-2.5-1.6-4.2
		c0-1.8,0.5-3.3,1.6-4.5c1.1-1.1,2.5-1.7,4.2-1.7c1.7,0,3,0.6,4,1.7c1,1.1,1.5,2.5,1.5,4.3C136.3,107.8,135.8,109.3,134.7,110.4z
		 M120.1,110c1,0,2-0.2,2.8-0.8v2.3c-0.8,0.4-2,0.6-3.3,0.6c-1.8,0-3.1-0.5-4.2-1.6c-1-1.1-1.5-2.5-1.5-4.2c0-1.8,0.6-3.3,1.7-4.5
		c1.2-1.2,2.6-1.8,4.5-1.8c1.1,0,2.1,0.1,2.9,0.4v2.4c-0.8-0.5-1.7-0.7-2.7-0.7c-1.1,0-2,0.4-2.7,1.1c-0.7,0.7-1,1.7-1,2.8
		c0,1.1,0.3,2.1,1,2.8C118.1,109.6,119,110,120.1,110z M111.6,111.8c-0.3,0.2-0.6,0.4-1,0.4c-0.4,0-0.7-0.1-1-0.4
		c-0.3-0.2-0.4-0.6-0.4-0.9c0-0.4,0.1-0.7,0.4-0.9c0.3-0.2,0.6-0.4,1-0.4c0.4,0,0.7,0.1,1,0.4c0.3,0.2,0.4,0.6,0.4,0.9
		C112,111.2,111.9,111.5,111.6,111.8z M388.8,93.7h-15.4V23.9h15.4V93.7z M266.7,111.5h-13.1V99.7h13.1V111.5z M166.9,111.5
		c-3.4,0-5.7,0-5.7,0V99.7c0,0,0.9,0,3.6,0c6.3,0,11.8-5.4,11.8-14.2c0-16,0-40.3,0-40.3H192c0,0,0,23.3,0,42.2
		C192,93.9,187.8,111.5,166.9,111.5z M315.3,23.9h13.1v11.8h-13.1V23.9z M203.9,80.4c0-0.4,0-0.7,0-1h0v-7.2V23.9h15.4
		c0,0,0,36,0,47.3c0,3.9,1.4,6.1,2.7,7.1h27.8c1.3-1.1,2.7-3.2,2.7-7.1c0-11.4,0-26.1,0-26.1h15.4c0,0,0,15.6,0,27.1
		c0,3.2-1.1,5-2.3,6h79.1c-1.2-12-11.2-21.3-23.5-21.3c-6.8,0-13,2.9-17.3,7.6l-9.5-9.5c6.9-7.6,16.9-12.3,28-12.3
		c20.1,0,36.6,15.7,37.8,35.5h0.1v15.4c0,0-99,0-139.5,0C208.2,93.8,203.9,84.1,203.9,80.4z M384.5,12h5.5v4.8h-17.8V12h4
		c-0.6-1.4-1-2.5-1-3.5c0-2.4,0.8-4.4,2.3-6c1.6-1.5,2.2-2.3,5.9-2.3c3.8,0,6.5,4.8,6.5,4.8l-3.6,2.4c0,0-1.3-2.3-3.5-2.3
		c-1.5,0-2.6,1.1-2.6,3.5C380.3,10.8,381.7,12,384.5,12z" />
				<path style="fill:#B12D3E;" d="M67.6,49.1v2.1h-0.2c-0.6,4.2-2.8,10.7-10.9,10.7c-11.5,0-29.7,0-42.3,0v11.8h53.3v14.2H0v-9.5v-4.7V61.8
		c0,0,0-0.5,0-1.2c0-0.4,0-0.9,0-1.4C0,56,1.7,47.6,10.2,47.6c11.5,0,30.2,0,43.2,0V35.7H0V21.5c0,0,35.6,0,55.1,0
		c9.6,0,11.8,7.8,12.3,11.8h0.1v1.9c0,0.3,0,0.4,0,0.4v11.8C67.6,47.6,67.6,48.1,67.6,49.1z M143.4,61.8v24.9H128V61.8H90.1h-3.6
		H74.7V21.5h15.4v24.9H128V21.5h15.4v24.9h8.3v15.4H143.4z M103.4,102.7c0,0.1-0.1,0.2-0.2,0.4c-0.1,0.2-0.2,0.3-0.3,0.5l-2.6,4h3.1
		v-3.8C103.4,103.5,103.4,103.1,103.4,102.7L103.4,102.7z M105.6,109.4v2.5h-2.2v-2.5h-5.1v-1.5l4.9-7.6h2.4v7.4h1.4v1.7H105.6z
		 M93.8,107.7l-2.4,2.2v0h4.8v2h-7.6V110l3.3-3.2c0.7-0.7,1.2-1.2,1.5-1.7c0.3-0.5,0.4-0.9,0.4-1.4c0-1.1-0.6-1.7-1.8-1.7
		c-1,0-2,0.4-2.9,1.2v-2.2c1-0.7,2.1-1,3.4-1c1.1,0,2.1,0.3,2.7,0.9c0.7,0.6,1,1.4,1,2.4C96.3,104.7,95.4,106.2,93.8,107.7z
		 M80.8,102.2h-1.3v3.4h1.2c0.6,0,1.1-0.2,1.4-0.5c0.4-0.3,0.5-0.8,0.5-1.3C82.7,102.7,82,102.2,80.8,102.2z M82.7,106.7L82.7,106.7
		c0.5,0.2,1.1,0.8,1.8,1.8l2.2,3.5h-2.9l-1.8-3c-0.4-0.6-0.7-1-0.9-1.2c-0.2-0.2-0.5-0.3-0.8-0.3h-0.8v4.5H77v-11.6h4.1
		c2.8,0,4.2,1.1,4.2,3.2c0,0.8-0.2,1.5-0.7,2C84.1,106,83.5,106.4,82.7,106.7z M69.2,103.3c-0.1-0.3-0.1-0.6-0.2-1H69
		c0,0.3-0.1,0.7-0.2,1l-1.3,4.1h3.1L69.2,103.3z M72,111.9l-0.9-2.7h-4.2l-0.9,2.7h-2.7l4.3-11.6h2.9l4.2,11.6H72z M56.2,103.3
		c-0.1-0.3-0.1-0.6-0.2-1h-0.1c0,0.3-0.1,0.7-0.2,1l-1.3,4.1h3.1L56.2,103.3z M59,111.9l-0.9-2.7h-4.2l-0.9,2.7h-2.7l4.3-11.6h2.9
		l4.2,11.6H59z M45.7,107.3c-0.4-0.3-0.9-0.4-1.5-0.4h-1.5v3.2h1.5c0.6,0,1.1-0.1,1.5-0.4c0.4-0.3,0.5-0.7,0.5-1.2
		C46.2,107.9,46,107.5,45.7,107.3z M43.8,102.1h-1.1v2.9h1.2c0.6,0,1-0.1,1.3-0.4c0.3-0.3,0.5-0.6,0.5-1.1
		C45.7,102.6,45.1,102.1,43.8,102.1z M46.1,105.6L46.1,105.6c0.8,0.1,1.5,0.4,2,0.9c0.5,0.5,0.7,1.1,0.7,1.9c0,1.1-0.4,1.9-1.1,2.5
		c-0.8,0.6-1.8,0.9-3.1,0.9h-4.4v-11.6h4.1c1.3,0,2.2,0.2,2.9,0.7c0.7,0.5,1,1.1,1,2c0,0.6-0.2,1.2-0.6,1.7
		C47.3,105.1,46.7,105.5,46.1,105.6z M34.3,111.9v-4.8h-5v4.8h-2.5v-11.6h2.5v4.7h5v-4.7h2.5v11.6H34.3z M24.7,111.9h-3.1l-3.5-5.1
		c-0.1-0.1-0.2-0.3-0.3-0.6h0v5.7h-2.5v-11.6h2.5v5.5h0c0.1-0.2,0.2-0.4,0.3-0.6l3.3-4.9h3l-4.2,5.6L24.7,111.9z M7.4,103.3
		c-0.1-0.3-0.1-0.6-0.2-1H7.1c0,0.3-0.1,0.7-0.2,1l-1.3,4.1h3.1L7.4,103.3z M10.2,111.9l-0.9-2.7H5.1l-0.9,2.7H1.5l4.3-11.6h2.9
		l4.2,11.6H10.2z" />
			</g>
		</symbol>
		<symbol id="akhbaar24-solid" viewBox="0 0 390 113">
			<g>
				<path d="M388.8,94.7h-15.4V24.9h15.4V94.7z M266.7,112.5h-13.1v-11.8h13.1V112.5z M166.9,112.5c-3.4,0-5.7,0-5.7,0
                                    v-11.9c0,0,0.9,0,3.6,0c6.3,0,11.8-5.4,11.8-14.2c0-16,0-40.3,0-40.3H192c0,0,0,23.3,0,42.2C192,94.9,187.8,112.5,166.9,112.5z
                                     M315.3,24.9h13.1v11.8h-13.1V24.9z M203.9,81.4c0-0.4,0-0.7,0-1h0v-7.2V24.9h15.4c0,0,0,36,0,47.3c0,3.9,1.4,6.1,2.7,7.1h27.8
                                    c1.3-1.1,2.7-3.2,2.7-7.1c0-11.4,0-26.1,0-26.1h15.4c0,0,0,15.6,0,27.1c0,3.2-1.1,5-2.3,6h79.1c-1.2-12-11.2-21.3-23.5-21.3
                                    c-6.8,0-13,2.9-17.3,7.6l-9.5-9.5c6.9-7.6,16.9-12.3,28-12.3c20.1,0,36.6,15.7,37.8,35.5h0.1v15.4c0,0-99,0-139.5,0
                                    C208.2,94.8,203.9,85.1,203.9,81.4z M384.5,13h5.5v4.8h-17.8V13h4c-0.6-1.4-1-2.5-1-3.5c0-2.4,0.8-4.4,2.3-6
                                    c1.6-1.5,2.2-2.3,5.9-2.3c3.8,0,6.5,4.8,6.5,4.8l-3.6,2.4c0,0-1.3-2.3-3.5-2.3c-1.5,0-2.6,1.1-2.6,3.5
                                    C380.3,11.8,381.7,13,384.5,13z" />
				<path d="M67.6,50.1v2.1h-0.2c-0.6,4.2-2.8,10.7-10.9,10.7c-11.5,0-29.7,0-42.3,0v11.8h53.3v14.2H0v-9.5v-4.7V62.8
                                    c0,0,0-0.5,0-1.2c0-0.4,0-0.9,0-1.4C0,57,1.7,48.6,10.2,48.6c11.5,0,30.2,0,43.2,0V36.7H0V22.5c0,0,35.6,0,55.1,0
                                    c9.6,0,11.8,7.8,12.3,11.8h0.1v1.9c0,0.3,0,0.4,0,0.4v11.8C67.6,48.6,67.6,49.1,67.6,50.1z M143.4,62.8v24.9H128V62.8H90.1h-3.6
                                    H74.7V22.5h15.4v24.9H128V22.5h15.4v24.9h8.3v15.4H143.4z" />
			</g>
		</symbol>
		<symbol id="photo24-icon-color" viewBox=" 0 0 512 512">
			<rect x="10" y="216" style="fill:#F25A78;" width="492" height="160" />
			<g>
				<path style="fill:#CCEEFF;" d="M10,376v60c0,11.05,8.95,20,20,20h452c11.05,0,20-8.95,20-20v-60H10z" />
				<path style="fill:#CCEEFF;" d="M482,136H366l-34.47-68.94C328.14,60.28,321.21,56,313.64,56H198.36c-7.57,0-14.5,4.28-17.89,11.06
		L146,136h-36v-20c0-11.05-8.95-20-20-20H70c-11.05,0-20,8.95-20,20v20H30c-11.05,0-20,8.95-20,20v60h492v-60
		C502,144.95,493.05,136,482,136z" />
			</g>
			<path style="fill:#57555C;" d="M376,296c0,66.135-53.618,120-120,120c-66.394,0-120-53.878-120-120c0-66.135,53.618-120,120-120
	C322.394,176,376,229.878,376,296z" />
			<path style="fill:#FFFFFF;" d="M256,216c44.11,0,80,35.89,80,80s-35.89,80-80,80s-80-35.89-80-80S211.89,216,256,216z" />
			<path d="M402,186c5.52,0,10-4.48,10-10s-4.48-10-10-10s-10,4.48-10,10S396.48,186,402,186z" />
			<path d="M482,126H372.18l-31.706-63.413C335.357,52.356,325.075,46,313.64,46H198.36c-11.437,0-21.719,6.356-26.834,16.588
	L139.82,126H120v-10c0-16.542-13.458-30-30-30H70c-16.542,0-30,13.458-30,30v10H30c-16.542,0-30,13.458-30,30
	c0,27.175,0,269.429,0,280c0,16.542,13.458,30,30,30h452c16.542,0,30-13.458,30-30c0-27.175,0-269.429,0-280
	C512,139.458,498.542,126,482,126z M20,225.9h126.451C133.161,246.661,126,270.992,126,296c0,25.01,7.162,49.243,20.45,70H20V225.9z
	 M146,296c0-61.205,49.79-110,110-110c60.133,0,110,48.719,110,110c0,61.212-49.797,110-110,110C195.743,406,146,357.158,146,296z
	 M386,296c0-25.009-7.161-49.239-20.451-70H492v140H365.549C378.839,345.239,386,321.009,386,296z M189.415,71.532
	C191.121,68.12,194.548,66,198.36,66h115.28c3.812,0,7.24,2.12,8.946,5.532L349.82,126H162.18L189.415,71.532z M60,116
	c0-5.514,4.486-10,10-10h20c5.514,0,10,4.486,10,10v10H60V116z M30,146c9.081,0,437.942,0,452,0c5.514,0,10,4.486,10,10v50H349.774
	c-24.434-25.472-58.348-40-93.774-40c-35.43,0-69.347,14.532-93.775,40H20v-50C20,150.486,24.486,146,30,146z M482,446H30
	c-5.514,0-10-4.486-10-10v-50h142.226c24.435,25.472,58.349,40,93.774,40c35.431,0,69.348-14.532,93.775-40H492v50
	C492,441.514,487.514,446,482,446z" />
			<path d="M286,86h-60c-5.523,0-10,4.477-10,10s4.477,10,10,10h60c5.522,0,10-4.477,10-10S291.522,86,286,86z" />
			<path d="M256,386c49.626,0,90-40.374,90-90s-40.374-90-90-90s-90,40.374-90,90S206.374,386,256,386z M256,226
	c38.598,0,70,31.402,70,70s-31.402,70-70,70s-70-31.402-70-70S217.402,226,256,226z" />
			<path d="M216,306c5.523,0,10-4.477,10-10c0-16.542,13.458-30,30-30c5.522,0,10-4.477,10-10s-4.478-10-10-10c-27.57,0-50,22.43-50,50
	C206,301.523,210.477,306,216,306z" />
			<path d="M442,186h20c5.522,0,10-4.477,10-10s-4.478-10-10-10h-20c-5.522,0-10,4.477-10,10S436.478,186,442,186z" />
		</symbol>
		<symbol id="check24" viewBox="0 0 512 512">
			<g>
				<path d="M504.502,75.496c-9.997-9.998-26.205-9.998-36.204,0L161.594,382.203L43.702,264.311c-9.997-9.998-26.205-9.997-36.204,0
                                c-9.998,9.997-9.998,26.205,0,36.203l135.994,135.992c9.994,9.997,26.214,9.99,36.204,0L504.502,111.7
                                C514.5,101.703,514.499,85.494,504.502,75.496z" />
			</g>
		</symbol>
		<symbol id="calculator" viewBox="0 0 60 60">
			<g>
				<g id="_x33_56._Play">
					<g>
						<path d="M50.586,0H9.414C7.807,0,6.5,1.308,6.5,2.914v54.172C6.5,58.692,7.807,60,9.414,60h41.172c1.607,0,2.914-1.308,2.914-2.914
                                V2.914C53.5,1.308,52.193,0,50.586,0z M51.5,57.086C51.5,57.59,51.09,58,50.586,58H9.414C8.91,58,8.5,57.59,8.5,57.086V2.914
                                C8.5,2.41,8.91,2,9.414,2h41.172C51.09,2,51.5,2.41,51.5,2.914V57.086z" />
						<path d="M11.5,55h11V44h-11V55z M13.5,46h7v7h-7V46z" />
						<path d="M24.5,55h11V44h-11V55z M26.5,46h7v7h-7V46z" />
						<path d="M37.5,55h11V31h-11V55z M39.5,33h7v20h-7V33z" />
						<path d="M11.5,42h11V31h-11V42z M13.5,33h7v7h-7V33z" />
						<path d="M24.5,42h11V31h-11V42z M26.5,33h7v7h-7V33z" />
						<path d="M11.5,29h11V18h-11V29z M13.5,20h7v7h-7V20z" />
						<path d="M24.5,29h11V18h-11V29z M26.5,20h7v7h-7V20z" />
						<path d="M37.5,29h11V18h-11V29z M39.5,20h7v7h-7V20z" />
						<path d="M11.5,15h37V5h-37V15z M13.5,7h33v6h-33V7z" />
					</g>
				</g>
			</g>
		</symbol>
		<symbol id="insert" viewBox="0 0 415.977 415.977">
			<g>
				<path d="M403.723,1.349h-167.41c-6.767,0-12.254,5.486-12.254,12.254V80.14H17.543C7.854,80.14,0,87.994,0,97.683v299.402
                            c0,9.688,7.854,17.543,17.543,17.543h299.402c9.689,0,17.543-7.854,17.543-17.543V193.267h69.234
                            c6.768,0,12.254-5.486,12.254-12.254V13.603C415.977,6.836,410.49,1.349,403.723,1.349z M299.402,379.542H35.086V115.226h188.972
                            v65.787c0,6.768,5.487,12.254,12.255,12.254H299.4v186.275H299.402z M380.977,158.267H259.059V36.349h121.918V158.267z" />
				<path d="M174.857,273.12l97.249-97.246c-5.537-4.021-10.785-8.489-16.072-12.793c-6.342-5.164-12.469-11.153-16.299-18.477
                            L143.04,241.3l-18.865-18.865c-1.896-1.896-4.656-2.634-7.244-1.941c-2.588,0.693-4.609,2.715-5.303,5.305l-25.449,95
                            c-0.693,2.588,0.045,5.35,1.939,7.244c1.426,1.425,3.342,2.195,5.305,2.195c0.646,0,1.299-0.084,1.939-0.256l95-25.447
                            c2.59-0.693,4.611-2.715,5.305-5.303c0.694-2.589-0.047-5.351-1.941-7.246L174.857,273.12z" />
			</g>
		</symbol>
	</defs>
</svg>
