<svg xmlns="http://www.w3.org/2000/svg" width="18.734" height="15.222" viewBox="0 0 18.734 15.222"><defs><style>.a{fill:#0f3054;}</style></defs><path class="a" d="M18.734,49.8a8.007,8.007,0,0,1-2.213.607,3.819,3.819,0,0,0,1.69-2.123,7.675,7.675,0,0,1-2.435.93,3.84,3.84,0,0,0-6.644,2.626,3.954,3.954,0,0,0,.089.876A10.871,10.871,0,0,1,1.3,48.7a3.842,3.842,0,0,0,1.18,5.133A3.793,3.793,0,0,1,.749,53.36V53.4a3.858,3.858,0,0,0,3.077,3.774,3.833,3.833,0,0,1-1.007.126,3.4,3.4,0,0,1-.727-.066,3.877,3.877,0,0,0,3.589,2.675A7.717,7.717,0,0,1,.919,61.551,7.2,7.2,0,0,1,0,61.5a10.812,10.812,0,0,0,5.892,1.724A10.856,10.856,0,0,0,16.823,52.292c0-.17-.006-.334-.014-.5A7.662,7.662,0,0,0,18.734,49.8Z" transform="translate(0 -48)"/></svg>