<svg xmlns="http://www.w3.org/2000/svg" width="18.332" height="13.094" viewBox="0 0 18.332 13.094"><defs><style>.a{fill:#0f3054;}</style></defs><g transform="translate(0 0)"><path class="a" d="M17.933,73.468a.713.713,0,0,0-.256-.051.608.608,0,0,0-.46.194l-4.123,4.112V76.036a2.951,2.951,0,0,0-2.946-2.946h-7.2a2.838,2.838,0,0,0-2.082.864A2.838,2.838,0,0,0,0,76.036v7.2A2.838,2.838,0,0,0,.864,85.32a2.838,2.838,0,0,0,2.082.864h7.2a2.951,2.951,0,0,0,2.946-2.946v-1.7l4.123,4.123a.608.608,0,0,0,.46.194.714.714,0,0,0,.256-.051.611.611,0,0,0,.4-.6V74.072A.612.612,0,0,0,17.933,73.468Z" transform="translate(0 -73.09)"/></g></svg>